<svg xmlns="http://www.w3.org/2000/svg" width="941.333" height="1002.667" version="1.0" viewBox="0 0 706 752"><path d="M337 1.1c-9.1.4-20.3 1.3-25 1.9-7.9 1.1-13.1 2.2-44 9.6-12.5 2.9-39.6 11.7-52.8 17-8.4 3.4-18.5 8.5-32.2 16.4-4.1 2.3-10.4 5.8-14 7.8-9.6 5.3-18.7 11.6-32.5 22.8-4.4 3.5-10.2 8.2-13 10.3-8.3 6.4-29.4 29.6-38.9 42.8-3.6 4.8-7.3 10-8.5 11.4-2.6 3.4-15.9 23.5-19.4 29.6C43 194 37.9 204.4 27.5 229.5c-4.9 12-13 37.4-16.4 51.5-3.4 14.5-7.4 36.1-6.7 36.7.3.3 23.9.4 52.5.4l52-.2 2 6.7c1.2 3.6 1.8 7.1 1.4 7.7-.4.7-17.1.8-55 .4L3 332.1v8.1l56.7-.3 56.8-.3.9 2.7c.5 1.5.7 3 .3 3.3-.4.4-21.7.7-47.5.7-25.7 0-51.3.2-56.9.5l-10.3.4v5.8l14.3.2c7.8.1 33.9 0 58-.2l43.7-.3 2 2.3c2.6 2.9 2.5 3.6-.2 4.4-1.3.3-27.3.6-57.8.6s-56.5.3-57.7.6c-1.7.5-2.3 1.4-2.3 3.5v2.9h126.7l1.1 2.5c.7 1.4 1.2 2.8 1.2 3 0 .3-21.7.6-48.2.6-26.6.1-55.7.5-64.8.8l-16.5.6v6l67.8.3 67.7.2 1.2 2.5c.6 1.4.8 2.8.4 3.3-.4.4-14.4.6-30.9.4-16.6-.2-47.4 0-68.4.4l-38.3.6v5.7l14.8.4c8.1.2 40.9.2 72.9-.1l58.3-.4 1.1 2.6c.7 1.4 1 2.8.8 3s-33.2.6-73.3 1-73.3.9-73.8 1.2c-1.2.7-1 4.2.3 4.9.5.4 36.2.8 79.1 1l78.2.2 2.5 2.9 2.4 2.9-81.4.6c-44.8.3-81.5.6-81.6.7-.2.1-.3 2.2-.3 4.7v4.5h173.7l.7 3.9c.9 6 .2 6.8-6.7 7.7-3.4.4-37.9.7-76.7.7-38.8-.1-74.8.2-80 .5l-9.5.7-.1 39.6-.2 39.6 75.9.5 75.8.4 2.3 2.9c1.3 1.6 3.3 4.6 4.4 6.6l2.2 3.7-73.3.4c-40.3.1-73.7.6-74.1 1.1-1.3 1.2 4.8 6.7 10.7 9.8 8.1 4 9.3 5.7 23.6 31.4 17.1 30.7 49.9 72.6 71.1 90.8 33.6 28.9 65.5 48.3 106.7 65 23.2 9.4 53.3 17.4 78 20.8 12.5 1.7 73.8 1.8 87.5.1 12.6-1.5 22.1-3 27.5-4.2 2.2-.5 8.5-1.9 14-3.1 24.7-5.2 59-18.3 86-32.8 14.1-7.6 39.6-24.5 52.3-34.7 13.5-10.9 32.7-29.5 43.8-42.7 14.3-17.1 35.8-50.6 48.3-75.5 3.4-6.8 6.2-10.9 8.5-12.7 1.9-1.4 5.3-5 7.4-7.9l4-5.3-18.6-.6c-10.3-.3-35.6-.3-56.2 0-22.1.3-41.6.1-47.5-.5l-10-1-3 2.9c-4.7 4.5-18.8 33.9-24.1 50-.4 1.3 2.7 2.7 16.3 7.2 24.2 8.1 32.3 9.9 41.6 9.5 4.2-.2 7.7.1 7.7.5 0 2.7-20.2 20.7-33.2 29.5-8.2 5.6-10.1 3.5-4.7-5 4.6-7.2 5.5-6.5-21.3-15.8l-16.7-5.9-1.2 3.7c-1.7 5.4-5.8 13.2-6.9 13.2-.5 0 .9 4.2 3.1 9.4 2.1 5.2 3.9 10.1 3.9 11 0 2.1 1.3 2.7 8.7 3.6 3.5.5 6.7 1.1 7.1 1.4 1.5 1.5-5.6 6.2-21.2 14.1-14.6 7.3-20.6 9.7-20.6 8.1 0-.2 1.6-2.7 3.5-5.5 6-9 5.9-9.6-3.5-31.6-2.9-6.6-6.2-14.5-7.5-17.5-9.7-23.2-17.1-37.9-19.5-39.1-.8-.4-3.4-1.2-5.7-1.8-2.4-.7-4.3-1.8-4.3-2.5 0-.8 3.4-2.6 7.8-4.1 4.2-1.6 12.6-5.3 18.6-8.2 12.6-6.3 14.6-6 9.7 1.3-1.7 2.6-3.1 5.6-3.1 6.7 0 2.2 12.2 33.7 13.1 33.7.3 0 2.1-3.9 3.9-8.8 1.8-4.8 6.6-15.4 10.7-23.6 4.8-9.7 7-15.3 6.4-15.9s-2.7-1.3-4.8-1.6c-2.8-.5-3.9-1.2-4.1-2.6-.3-2.2.6-2.7 20.8-11.1 10.7-4.4 16-8.6 16-12.7 0-1.5.8-1.8 5.3-1.6 2.8.1 10.2-.4 16.2-1 6.9-.8 34.1-1.3 72.7-1.4 33.9-.1 61.8-.4 62.1-.7s.2-18.5-.2-40.5l-.6-40-80-.2c-44-.1-84.9-.5-91-.8-6-.3-12.2-.5-13.7-.6-1.6 0-2.8-.2-2.8-.5s1.9-2.5 4.3-4.8l4.2-4.3 10.5-.7c5.8-.4 46.3-.7 90.1-.7 43.7.1 79.7-.1 80-.3.2-.3.3-2.5.1-5l-.4-4.6h-33.2c-18.2 0-51.1-.3-73.1-.7-35.2-.6-39.2-.8-33-1.9l7-1.1-5.2-.2c-2.9 0-5.3-.6-5.3-1.1 0-.7 17.4-1 50.3-1 27.7 0 59.9-.3 71.5-.7l21.2-.6v-5.4l-23.2-.6c-12.8-.4-42.2-.8-65.3-.9s-38.9-.4-35-.5c4.3-.3 7.6-1 8.6-1.9.9-.8 2.3-1.2 3.1-.9s4.8-.1 8.9-1c6.1-1.2 15.9-1.5 55.2-1.5H704v-5.7l-29.2-.6c-16.1-.4-41-.7-55.3-.8-14.3 0-26.9-.4-28-.9-1.9-.8-1.8-.9.4-.9 1.3-.1 2.2-.4 1.8-.7-.3-.4 0-1.3.8-2 1.1-1.2 10.2-1.4 51.3-1.4 27.5 0 52-.3 54.6-.6 4.3-.6 4.7-.9 4.4-3.3-.3-2.5-.5-2.6-9.3-3.2-4.9-.4-28.6-.8-52.5-1-23.9-.1-44.2-.6-45.1-1-.9-.5-6.9-1-13.2-1.1-10.3-.3-11.4-.5-10.1-1.8s10.2-1.5 65.4-1.9c68.8-.3 66.1-.1 64.5-5.2-.6-1.8-3.1-1.9-61.8-2.1-33.7-.1-55.5-.4-48.6-.7 7.3-.4 13.2-1.1 14-1.8.8-.6 3-1.3 4.9-1.6 2.4-.2 1.4-.5-3-.7-6.3-.2-6.4-.3-2.2-1 2.4-.3 18.1-.6 35-.4 16.9.1 37.6-.1 46-.4l15.3-.5-.3-3.1-.3-3.1H682c-45.4 0-73.5-.6-72.2-1.4.7-.4 2.4-.6 3.8-.3 1.4.2 2.4 0 2.4-.7 0-.6-.8-1.2-1.7-1.3-1 0-3-.2-4.4-.3s-3.4-.7-4.4-1.2c-2.7-1.5 46.4-2.7 75.3-1.9l23.3.7-.3-3.8-.3-3.8-38.5.3c-31 .2-54-.4-69.8-2-.9-.1-1.1-1.1-.7-3 .3-1.5.7-4.1 1.1-5.7l.5-2.9 36.2-.7c19.9-.4 44.1-.5 53.7-.3l17.4.3-.2-4.5c-.7-11-8.8-44.5-16.6-68.7-19-58.3-61.2-123.6-103.1-159.2-26.2-22.3-56.6-41-91.4-56.5-21.7-9.6-25.7-11-47.9-16.6-27.2-6.8-42.1-9.7-60.1-11.5-16.5-1.6-21.4-1.7-47.1-.4m39.9 18.5 3.1.6v16.5h-23.7c-13.1 0-25.2.3-26.9.7l-3.2.7.5-4.8c1.3-11.7 1.7-12.7 4.8-13.4 4-.9 41.4-1.1 45.4-.3m27.6 4.4c23.9 6.2 56.1 18.5 65.5 25 1.4.9 5.2 3.2 8.5 5 9.8 5.4 27.6 17.8 34 23.9 3.3 3.1 7.1 6.6 8.5 7.6 7 5.6 27 30.2 27 33.3 0 .8-2.3 3.7-5.2 6.4-5 4.6-5.2 4.7-7.1 3-1.1-.9-3.1-3.4-4.4-5.6-3.3-5.2-18.1-20.5-26.6-27.5-3.7-3.1-9.1-7.5-12-9.9-13.4-11.2-39.4-27-53.4-32.5-9.3-3.7-34.6-11.2-41.2-12.3-2.1-.3-4.2-.9-4.8-1.3-.5-.3-.7-4.6-.5-9.4.4-7.6.6-8.7 2.1-8.3.9.3 5.2 1.4 9.6 2.6m-90.1 1.2c.3 1.8.7 5.6.9 8.4l.4 5.1-9.6 2.3c-13.8 3.2-41.1 12.5-51.6 17.4-9.2 4.3-36.5 21.8-46.5 29.7-9.1 7.2-22.7 20.8-32.1 32.1l-9 10.7-6-3c-3.4-1.7-6.3-2.8-6.7-2.5-.3.3 0 .6.6.6.7 0 1.2.9 1.2 2.1s1.6 3.7 3.6 5.7l3.6 3.6-7.1 14c-17.1 34.4-26.2 72.3-24.6 102.6.7 14.4 6.3 46.1 9.9 56.5 6.8 19.7 17.1 42 23.8 51.7 1 1.5 1.5 3.4 1.2 4.5-.4 1.2-.3 1.4.3.5.7-1 1.3-.8 2.7.7 1.7 1.9 1.7 2-.3 3-1.1.6-2.7 1.1-3.5 1.1-.9 0-1.6.5-1.6 1 0 .6-1.2 1.5-2.6 2-2 .8-2.4 1.4-1.8 3.2.5 1.6-.1 1.3-2.3-1.3-10.2-12-26.5-45.4-31.7-64.9-2.6-9.8-6.8-30.9-8.7-44-2.3-16.4-.9-43.1 3.7-65.3 5.9-29 22.1-68.7 31.4-77.2 1.1-1 2-2.6 2-3.5 0-4.9 13.8-20.6 40.5-46.1C205.4 65.5 238.6 45.7 258 38c11-4.4 34.9-12.1 43.1-13.9 12.1-2.8 12.7-2.7 13.3 1.1m61.5 31.9c3 .5 5.6 1 5.8 1.2s-.7 4.8-1.9 10.2l-2.2 9.8-6.5-.7c-3.7-.3-8.1-.6-9.9-.6-3.1 0-3.3-.2-3-3.3s.5-3.2 5.3-3.6l5-.5-5-.5-5-.6-.3-5.4c-.2-2.9-.1-5.9.2-6.7.5-1.4 6.9-1.1 17.5.7M349 66.4v10.4l-9.2.4c-11.2.5-12 .3-11.7-3.1.2-1.4-.2-3.5-.8-4.6-1.8-3.4-2.4-10.3-1.1-11.2 1.5-.9 9.9-1.9 17.6-2.2l5.2-.1zm54.5-3.9c15.4 4.2 42.5 14.8 42.5 16.6 0 2.4-5.1 11.8-7.8 14.2-2.8 2.7-3.1 2.8-5.8 1.4-6.2-3.2-26.3-10.5-33.4-12.2-4.1-1-7.9-2.1-8.4-2.6-.5-.4-.6-1.9-.2-3.3.6-2.4.9-2.6 4.9-2 6.8.9 13.3 3.3 16.3 5.9 1.6 1.4 3.3 2.5 3.7 2.5.5 0 .6.3.4.7-.3.5 2.7.9 6.6 1.1 4 .2 7 .2 6.7-.1-1.1-1-30.8-11.5-34.2-12.1-3.6-.6-3.7-.8-3.2-4.4.8-6.1 1.4-8.2 2.2-8.2.4 0 4.8 1.1 9.7 2.5m-90.4 2.1c.4 1.6 1.1 5.1 1.7 7.9.5 2.7 1.1 5.7 1.3 6.5.3 1.1-1.6 1.9-7.6 3.3-10.1 2.3-21 6-29.8 10l-6.9 3.1-1.9-2.5c-3.9-4.9-9-14.2-8.2-15 2.8-2.8 34.5-14.3 43.3-15.8 7-1.1 7.3-1 8.1 2.5M255.8 92c2.3 4.4 4.2 8.4 4.2 9 0 .5-2.8 2.8-6.2 5.1-7.9 5.3-19.1 14.1-24 18.7-2.6 2.5-4 3.2-5.2 2.5-2.6-1.4-11.6-12.6-11.6-14.3 0-.9 3.2-4.2 7-7.5 7.6-6.5 28.9-21.4 30.5-21.4.6 0 2.9 3.5 5.3 7.9m216.5 4.9c6.8 5.5 13.6 11.4 15.1 13.2l2.7 3.2-5.8 6.2c-3.2 3.5-6.3 6.3-6.8 6.4-1 .1-11.2-8.5-18.5-15.6-1.9-1.9-5.2-4.3-7.2-5.4l-3.7-1.9 5-8c2.8-4.4 5.5-8 5.9-8 .5 0 6.4 4.5 13.3 9.9M375 92c.6.8 1 6.6 1 12.7V116l8.3-.1c4.5-.1 7.1-.4 5.8-.6-2.4-.5-2.4-.5-1.7-10.6.4-5.6.8-10.3 1-10.4.2-.2 2 .3 4.2 1.1l3.9 1.5h-3.1c-2.3.1-3.3.7-3.7 2.2-.3 1.1 0 2.2.6 2.4 2 .7 16.7 4.3 16.8 4.1 0 0 .2-1.1.3-2.3.2-1.3.5-2.5.7-2.7s4 1 8.4 2.6l8.1 2.9-.1 68.3c0 65.9.1 68.5 1.9 70.5 7.6 8.4 9.4-8.1 9.5-85.9.1-21.7.4-41 .8-42.8l.8-3.3 7.5 5.1c8.1 5.6 23.3 19.9 25.5 24.1 1.2 2.2 1.4 18.2 1.4 95.5 0 51.1.3 98.4.7 105 .6 11.3.5 12.5-1.5 16.8-2.8 5.8-8.3 10.3-14.1 11.8-3.3.8-6.2 2.8-10.8 7.2-5.1 4.8-6.5 5.7-7.2 4.6-1.4-2.2-1.2-9.4.3-10.9 1-1-.1-1.1-5.3-.9l-6.5.3-.3 8.7c-.2 5.3-.7 9-1.5 9.5-2.3 1.8-17.3 7.1-27.1 9.8-5.5 1.4-10.3 2.8-10.8 3.1-.4.3-.8-6.5-.8-15V372l8.3-.2 8.2-.1-10.5-.8c-5.8-.4-12.4-.5-14.7-.2l-4.3.5.3 15.8c.1 8.7 0 16.1-.3 16.3-1.4 1.5-19.5 2.9-29 2.3-16.2-.9-14.7.8-15.5-17.4-.4-8.7-.5-30.9-.3-49.5l.5-33.7h-12.2l.2 48.5c.1 44.8 0 48.5-1.5 48.1-1-.3-4.8-1.2-8.7-2.1-9-2-15.6-4.1-22.8-7.3l-5.8-2.5.5-4.1c.3-2.3.8-6.5 1.1-9.4l.6-5.2H269v4.7c0 7.5-.8 7.8-7.6 3.7-3.2-2-9.5-5.7-13.9-8.2-15.3-8.5-16.2-9.8-16.5-22.7-.1-4.4-.1-8.2-.1-8.5.1-.3.4-44.1.7-97.5.3-67.8.8-97.1 1.5-97.6.6-.4.8-1.6.4-2.8-.5-1.5-.2-2.1 1-2.1.9 0 1.4-.4 1.1-.9s.7-2.2 2.3-3.8c3.8-4 10.7-9.2 9.7-7.3-.4.8.2.3 1.4-1.3 1.2-1.5 2.7-2.7 3.4-2.7.6 0 1.8-.9 2.6-2s2-2 2.7-2 1.3-.5 1.3-1.2c0-.6.3-.9.6-.5.4.3 1.3 0 2.1-.8 2-2 3.9-2 2.3 0-1.1 1.3-1 1.4.3.9 1-.3 1.7.1 1.9 1.3.3 1.1.9 0 1.5-2.7 1.4-6.5 2.9 27.8 2.5 62-.2 27.2 1.1 70.2 2.3 73.2.4.9 1.9 2.1 3.5 2.6 2.7 1 2.9.8 4.4-3.3 1.5-3.8 1.7-11.8 1.6-75.1-.2-66.8-.1-70.9 1.6-72.1 1-.7 2.7-1 3.7-.7 1.3.4 1.7.2 1.3-.5-.4-.6-.5-1.1-.2-1.1.2 0 1.1-.3 2-.6 1.1-.4 1.6-.1 1.6 1 0 1 .9 1.6 2.5 1.6 3.6 0 3.2 3.2-.7 7.1l-3.3 3.2 4.1-3.1c2.2-1.7 5.2-3.6 6.7-4.3 1.4-.6 2.4-1.6 2-2.2-.3-.6-.2-.7.4-.4.5.3 3.3-.5 6.1-1.9 4.5-2.2 5.2-2.9 5.2-5.4q0-3 1.5-3c1.2 0 1.5 1.9 1.5 11v11h11.9l.3-12.3.3-12.2 3.8-.3c2.8-.2 3.9.1 4.4 1.4.4 1 .2 1.9-.5 2.2-2.5.8-1.1 2 2.8 2.4 2.2.2 4 0 4-.4 0-.5.7-.8 1.5-.8.7 0 1.8-.6 2.2-1.4s2.2-1.6 3.8-1.9c2.4-.3 2.1-.4-1.3-.6q-4.35-.15-3.6-1.2c1.1-1.8 26.3-.7 27.4 1.1m201.1 10.5c11.3 10.6 24 25 34 38.5 38.5 52.1 62.2 103.6 71.5 155.2.6 3.7.6 3.8-2.5 3.8-3.2 0-3.4-.3-5.7-10.5-2.8-12.5-9-33.8-12.3-42.5-6.9-18.6-20.4-46.6-30.4-63.5-13.6-22.9-40.8-57.5-60.1-76.5-6.1-5.9-7.9-9.4-5.9-11.3 1.6-1.6 3.8-.3 11.4 6.8M142 100.9c0 .5-1.3 2.2-2.8 3.7-10 10.1-31.5 35.7-42.4 50.4-14.4 19.5-34.3 54.5-44 77.5-6.1 14.4-12.8 35.4-15.8 49.4-4 18.3-4.4 19.3-7.3 18.9-2.1-.3-2.2-.7-1.9-7.1.5-10.7 10.5-44.3 19.2-64.7 8.3-19.3 10.7-24.4 16.7-34.3 2.9-4.8 6.2-10.6 7.4-13 6.2-12.2 32.7-48.7 44.4-61.2 5.3-5.6 6.8-6.6 7.6-5.5.8 1.2.9 1.1.7-.5-.2-1.4.3-2 1.7-2 1.1 0 2.1-.9 2.5-2.1.9-3.4 4.8-7.7 6.5-7 .8.3 1.4 0 1.2-.6-.1-.7 1.2-1.5 2.8-1.9 1.7-.4 3.1-.7 3.3-.8.1 0 .2.3.2.8m54 16.5c0 1.6-9.7 12.6-11.1 12.6-1.7 0-.9-2.1 2.4-5.6 8.3-9.2 8.7-9.5 8.7-7m21.9 18.3c.3.2-1.1 2-3.1 4.1-4.7 4.9-10.8 13.1-11.9 15.9-.8 2.2-.9 2.2-8.1-2.7-4.1-2.6-8.2-5.7-9.2-6.9-1.7-1.9-1.7-2.1 1.2-6.3 1.7-2.4 6-7.4 9.7-11.1l6.7-6.8 7.1 6.7c4 3.8 7.4 7 7.6 7.1m294.8 2.6c2.8 3.9 4.3 7.1 3.7 7.5-.5.5-3.9 3.2-7.5 6l-6.6 5.1-8.2-10.5-8.2-10.6 4.7-5.2c8.7-9.5 8.3-9.3 13.2-3.9 2.4 2.7 6.4 7.8 8.9 11.6m45.5-4.7c6 8.6 19.1 38.3 23.2 52.4 2.6 9.2 6.4 29.9 7.5 41.4 1.4 14 1.4 35.6.1 35.6-.5 0-1 .8-1 1.7 0 1.5.2 1.6 1 .3.5-.8 1-1.1 1-.5 0 1.7-1.4 3-3.3 3.2-1.4.1-1.7-.4-1.4-1.7.2-1 .1-2.4-.4-3.1-.5-.9-.9-.9-.9-.3 0 .7-1.6 1.5-3.5 1.8-1.9.4-4.1 1.3-4.8 2.1-1.2 1.2-1.4.1-1-7.8.3-5.2 1-9.6 1.7-10.2 1.3-1.1 1-4.5-.4-4.5-.4 0-1.1-4.4-1.5-9.8-2-27.8-9-51.3-24.5-82.2-3.8-7.7-7-14.4-7-15s2.5-2.2 5.5-3.6c3.4-1.5 5.3-2.9 4.9-3.6-.4-.6-.1-.9.7-.6s2.6 2.2 4.1 4.4M218.9 252.9c.1 104.3 1.2 95.5-9.7 78.7-11.4-17.6-21.1-45-19.5-54.9.4-2.4.2-3.7-.6-3.7-.6 0-1.1.6-1.2 1.2-.1 2.2-1.5-3.4-2.3-9-.5-3.7-.4-5.2.4-4.7.5.3 1-.2 1-1.2.1-1 .9-7.3 1.9-13.9 1.3-8.8 2.4-13 4-15.2 4.1-5.8 10-21.5 7-18.5-.7.7-1.3 2.2-1.4 3.5-.3 3.5-2.5 3.4-2.5-.1 0-2.7-.4-3.1-2.6-3.1-2.1 0-2.4-.3-1.9-2.3s.5-2-.9.3c-5.1 8.4 2.2-12.9 7.7-22.5 3.3-5.8 4.7-7.5 6.5-7.5 1.5 0 2.2-.6 2.2-1.9 0-1.1-.4-2.3-1-2.6-.9-.6 1.4-5.2 3.3-6.6.5-.3.9-1 .9-1.5s1.7-3.7 3.7-7.1l3.6-6.2.7 3.7c.4 2 .7 44.8.7 95.1m-34.7-94c1.8 1.5 4.7 3.6 6.5 4.5 3.6 1.8 3.6 1.8-.7 10.4-1.2 2.4-3.6 7.7-5.5 11.8s-3.8 7.4-4.2 7.4c-3 0-16.8-6-17.1-7.4-.4-1.9 9.6-22.8 12.8-26.9 2.7-3.4 4.1-3.4 8.2.2m310.1 10.9c14.5 23.8 22.6 45.8 24.7 67.2 1.9 18.6-1.3 40.8-9 62.5-3.9 11-14.4 32.2-20.8 41.8l-2.7 4-.6-3.4c-1-4.9-2-146.1-1.2-167.1.5-14 .9-17.6 1.9-16.8.6.6 4.1 5.9 7.7 11.8m33.3-7.1c4.9 11.1 10.7 22.3 11.6 22.3.4 0 .8.6.8 1.4s-1.4 1.7-3.2 2-5.7 1.7-8.5 3.1l-5.2 2.4-7-14.2c-6-12.3-6.7-14.3-5.4-15.2.9-.6 3.4-2.4 5.7-4.2 6.3-4.8 8.1-4.4 11.2 2.4M206 176.9c0 .5-.7 1.1-1.4 1.4q-1.5.6-.9-.9c.6-1.5 2.3-1.9 2.3-.5m-37.3 22.3c5 2.3 7.2 3.8 7.3 5.1 0 1.8-3.8 24.3-4.5 26.4-.3.8-1.5.9-4.2.3-2.1-.5-6.4-.5-9.5-.1l-5.8.8v-3c0-4.6 7.3-32.7 8.4-32.7.6 0 4.3 1.4 8.3 3.2m376 .5c1.7 7 5.9 29.8 5.4 30-.3.1-4.8.3-9.8.6-9.2.4-9.3.4-9.3-1.9 0-1.3-1.2-7.4-2.6-13.4-1.4-6.1-2.4-11.2-2.2-11.4 1.3-.8 15.5-6.4 16.5-6.5.7 0 1.6 1.1 2 2.6m-355.6 15.6c-1 .9-1.1.8-.5-.6.3-1 .9-1.5 1.2-1.2s0 1.1-.7 1.8m-1.4 6.9c-.3.8-.6.5-.6-.6-.1-1.1.2-1.7.5-1.3.3.3.4 1.2.1 1.9m.2 6c0 3.1-.1 3.1-1 1-.5-1.3-.7-2.8-.3-3.3 1-1.6 1.4-.9 1.3 2.3m-26.4 11.6c2.8 1.2 5.8 2.3 6.8 2.6 1.6.5 1.7 1.8 1.5 12.8l-.3 12.2-4 .9c-4.8 1-10.1 4.9-9 6.7.6.9 2.9 1.1 8.6.7l7.7-.6.7 5.2c1.8 13.1 10.9 37.3 17 45.4 1.5 1.9 2.5 3.5 2.4 3.7-.2.1-2.4 1.4-4.8 3-2.4 1.5-6.3 4.6-8.8 6.8-2.4 2.3-4.5 3.9-4.6 3.7-3.7-4.7-18.2-45-20.7-57.4-.6-3.3-1.9-9.2-2.7-13-1.6-7.6-2.2-29.5-.9-33.3.9-2.8 3.1-2.7 11.1.6m383.6 7.9c.2 9.1-.2 20.7-.7 21.2-.2.2-2.9-.3-6.1-1l-5.8-1.4.4-12c.2-7.4.8-12.3 1.5-12.7.6-.4 3.2-.8 5.9-.8h4.7zM73.8 261.9c1.2 2.6 3.7 9.1 5.6 14.4s4 10.5 4.6 11.7c1 1.9.8 2-3.9 2-4.9 0-5-.1-5.3-3.3l-.3-3.2H60.6l-1 3.2c-.8 3-1.2 3.3-4.9 3.3-2.7 0-3.8-.4-3.4-1.3.3-.6 3.4-8.1 6.9-16.4l6.3-15.3h3.6c3.4 0 3.8.3 5.7 4.9m575.2-2.4c-1.9 2-3.3 2.5-7.3 2.5h-5l.7 4.9c.8 5.7.1 8.1-2.4 8.1-1 0-2.4.9-3.1 2.1-1.2 1.8-1.4.6-1.1-9l.3-11.1h20.2zm-65.3 7.7c-.3.8-.6.5-.6-.6-.1-1.1.2-1.7.5-1.3.3.3.4 1.2.1 1.9m5 5c-.3.7-.5.2-.5-1.2s.2-1.9.5-1.3c.2.7.2 1.9 0 2.5m-48.4 3.7c1 1-3.8 24.1-7.4 35.6-1 3.4-4.4 9.8-7.9 14.9-3.3 4.8-6 9.3-6 9.8 0 .6-1.5-.3-3.4-2-1.9-1.6-4-3.2-4.8-3.4-1-.4-.9-1.1.5-3.4 7.2-11.7 17.2-38 18.4-48.7l.6-4.9 4.6.6c2.5.3 4.9 1 5.4 1.5m8.5 1.7c.6.2 1.2 1.4 1.1 2.6 0 2.2-.1 2.2-.9.3-.5-1.1-.9-1.4-.9-.8-.1 1.8-2.6 1.6-4.5-.3-3.2-3.1-1.3-3.8 5.2-1.8m38.6 7.3c-.4 2.3-.9 4-1.1 3.7-.3-.3-.2-2.3.2-4.6s.9-3.9 1.1-3.7c.3.2.2 2.3-.2 4.6m52.2-1.9c2.6 0 6.3-.5 8.1-1.2 3.8-1.4 4.8-.7 5.8 3.9l.7 3.3h-26.4l.7-3.7c1-5.2 1.4-5.6 4.1-3.9 1.3.9 4.5 1.6 7 1.6m-53.9 11.2c-.3.7-.5.2-.5-1.2s.2-1.9.5-1.3c.2.7.2 1.9 0 2.5m-1 5.5c-.3 1-.5.4-.5-1.2 0-1.7.2-2.4.5-1.8.2.7.2 2.1 0 3m-4 15.5c-.3.8-.6.5-.6-.6-.1-1.1.2-1.7.5-1.3.3.3.4 1.2.1 1.9m-46.6 13.9c-1.1 2.4-2 3.9-2 3.2-.1-1.4 3.1-8.4 3.6-7.9.2.2-.5 2.3-1.6 4.7m-328.7 20.3c2.4 3.4 5.7 7.4 7.4 8.9l2.9 2.8-6.1 6.5-6 6.4-6.4-6.2c-5.6-5.6-14-16.6-13-17.2.1-.1 1.7-1 3.3-2.1 1.7-1 4.7-3.8 6.9-6.2l3.8-4.4 1.4 2.7c.8 1.5 3.4 5.4 5.8 8.8m304.9-5.6c4.2 4.3 4.5 4.9 2.5 4.8-1.6-.1-2.3.4-2.2 1.6.1 1-.2 1.5-.7 1.2s-.9.2-.9 1c0 2.2-2 7-2.6 6.3-.3-.3 0-1.6.7-2.9s-1.6.3-5.2 3.7c-3.5 3.2-6.4 6.7-6.3 7.6.1 2.5-2.8.8-5.6-3.1-1.9-2.7-2-3.3-.8-4.9 4.8-6.7 15.4-20.1 15.8-20.1.3 0 2.7 2.2 5.3 4.8m8.7 9.5c0 .6-2.4 3.6-5.2 6.6-2.9 3.1-6.3 6.9-7.6 8.5-2.7 3.2-4.2 2.8-1.8-.5 1.5-2.1 1.4-2.5-.5-4.5-1.4-1.5-1.7-2.4-1-2.9.7-.4 1-.1.9.7-.2.9.6 1.2 2.6 1.1 3.8-.3 11-7.5 10.3-10.4-.4-1.6-.3-1.8.9-.8.8.6 1.4 1.6 1.4 2.2m79.3 1.4c-2.9.2-7.8.2-11 0s-.8-.3 5.2-.3c6.1 0 8.7.1 5.8.3m-113.2 19.5 1.9 3.6-14.5 9.7c-8 5.3-14.7 10.1-15.1 10.6-1 1.6.4 2.3 2 1 .8-.7 3.6-1.1 6.2-1l4.7.3-3.6 3.1c-2 1.7-5.2 4-7.2 5.1l-3.7 1.9-3.4-4c-1.8-2.2-4.1-5.5-5-7.3-1.9-4.1-1.3-5 7-9.8 3.4-1.9 10.6-7.2 16.1-11.8 11.1-9.3 10.5-9.2 14.6-1.4M246.3 386c7 4.1 12.7 8.1 12.7 8.9 0 2.8-7.3 14.1-9.1 14.1-.4 0-2.2-1.8-3.9-4-2.6-3.3-3-4.3-2-5.5.7-.8 1-2.2.6-3-.3-.9-.2-1.3.4-1s1 0 1-.7-2.2-2.4-5-3.7c-3.7-1.8-19.8-11.8-21.8-13.6-.2-.2.7-2.3 2-4.8l2.3-4.5 5.1 5.2c2.9 2.9 10.4 8.3 17.7 12.6m336.5-13.3c-1.5.2-4.2.2-6 0s-.6-.4 2.7-.4 4.8.2 3.3.4m11 0c-1.6.2-4 .2-5.5 0-1.6-.2-.3-.4 2.7-.4s4.3.2 2.8.4m-376.6 8.8c-.4 2.5-1.6 3.2-2.7 1.6-.3-.5.2-1.7 1.1-2.5 2.1-2.1 2.2-2 1.6.9m272.2 3.9c-1.6 1.3-3.1 2.3-3.3 2.1s1-1.5 2.5-2.9c1.6-1.3 3.1-2.3 3.3-2.1s-1 1.5-2.5 2.9m97.4 9.3c-1 .2-2.6.2-3.5 0-1-.3-.2-.5 1.7-.5s2.7.2 1.8.5m-15.5 5c-.7.2-1.9.2-2.5 0-.7-.3-.2-.5 1.2-.5s1.9.2 1.3.5m-278.8 8.7c6.1 1.9 13.9 4 17.5 4.7 3.6.6 6.8 1.5 7.2 1.8.8.7-.9 8.1-2.1 9.4-.5.4-5.7-.8-11.7-2.7-21.3-6.9-36.4-10.7-36.4-9.1 0 1.8 2.2 4.5 3.2 3.9.6-.4.8-.3.4.4-.3.5 0 1.3.6 1.6 1.8.8-3.1-.5-6.1-1.6l-2.4-.9 2-2.2c1.1-1.2 3.2-4.8 4.6-7.9l2.5-5.7 4.9 2.5c2.6 1.3 9.8 4 15.8 5.8m144.9-3.3c.9 2.2 1.6 5.2 1.6 6.8s.6 3.1 1.3 3.4c1.8.6-.7 3.3-4.5 4.6-2.8 1-2.9.9-1.7-.7.8-.9 1.9-2 2.4-2.4.6-.5.4-1.4-.7-2.4-1.6-1.6-2.1-1.6-8.5.1-3.7 1-13.1 3.7-20.7 6.1-7.7 2.4-14.1 4.2-14.4 4-.9-1-2.2-9-1.5-9.7.4-.4 8.7-3 18.3-5.9s19.1-6 21-7c4.4-2.2 5.5-1.8 7.4 3.1m-97 12.5 9.5.7v8c0 5.9-.4 7.6-1.2 6.8-.6-.6-1.9-1.1-2.9-1.1-2.7 0-2.3-3.8.5-4.2 2.2-.4-1.8-1.1-13.5-2.3-5.1-.6-5.8-.9-5.8-2.8 0-3.9 1.2-6.8 2.5-6.3.7.2 5.6.8 10.9 1.2m38.6 2.8c0 5.2-.8 5.6-11.4 5.6-3.8 0-6.7.3-6.3.6.7.8 7.6 1.5 14 1.5 4.5 0 4.7.1 4.7 3 0 2.8-.1 2.9-5.4 2.9-2.9 0-7.4.3-10 .6l-4.6.7v-17.1l6.8-.7c3.7-.3 7.4-.8 8.2-.9 3.7-.8 4-.6 4 3.8m-76.7 6.8c.9.5 2.2.6 2.7.3s2.3.1 4 1 3.5 1.3 4 1c.6-.3 1 .1 1 1.1 0 1.7-.1 1.7-7.5-.1-5.3-1.3-15.8-4.5-16.4-5-.9-.9 10.1.6 12.2 1.7m106.2 1.8c-.3.5-1.8 1-3.3.9l-2.7-.1 2.5-.8c3.5-1.1 4.2-1.1 3.5 0m-30.4 44.2c5.6 11.2 11 21.5 12 23 1.1 1.4 1.9 2.9 1.9 3.2s-3.1.6-6.9.6h-6.8l-.9-4.3-.9-4.2h-22l-.9 4.2-1 4.3h-6.8c-3.7 0-6.8-.4-6.8-.9s1.8-3.9 4.1-7.6c4.6-7.6 17.2-32.8 18.1-36.3.5-1.7 1.3-2.2 3.7-2.2 2.9 0 3.3.6 13.2 20.2M220.3 455c3.4 0 3.7.2 2.7 1.9-.5 1.1-1 4.9-1 8.5v6.6h18.2l-.4-8.8-.3-8.7h6.8c6.8 0 6.8 0 6 2.5-.4 1.4-.6 11.6-.4 22.7l.3 20.3H240v-19h-18v19h-11.2l.4-20.4c.2-15.4 0-20.8-.9-21.7-2.6-2.6-1.5-4.2 2.5-3.5 2 .3 5.4.6 7.5.6m59.4 1.2c-.6 2.2 3.7 9.1 8.1 13.1 2 1.8 2.1 1.7 6.7-4.8 3.6-4.9 4.5-6.9 3.6-7.8-2.2-2.2-1-2.7 7.4-2.7 8.5 0 9.9.6 6.9 3.1-.9.7-3.9 4.7-6.7 8.9-2.8 4.1-6.8 9.6-9 12.2l-3.9 4.7.3 8.5.4 8.6h-4.2c-6.9 0-7-.1-6.5-9.4l.4-8.3-6.1-8.4c-3.4-4.6-7.9-10.6-10.1-13.3-2.2-2.6-4-5.2-4-5.7s3.9-.9 8.6-.9c8.4 0 8.6.1 8.1 2.2m134.7-.5c-.5 1-1 7.8-1.2 15-.3 13-.3 13.3 2.2 15.8 3.4 3.4 10.3 3.5 13.3.2 1.9-2 2.1-3.6 2.4-15.7.2-7.4-.1-14.3-.5-15.3-.7-1.5-.1-1.7 6.8-1.7 8 0 9.1.7 6 4.1-1.3 1.5-1.6 3.9-1.5 12 .3 14.4-.5 18.1-4.6 22.9-4.7 5.5-8.4 7.2-15.5 7.2-4.8 0-6.8-.6-10.5-2.9-8.2-5-8.7-6.3-9.4-23.6-.3-8.4-.9-16.2-1.3-17.5-.8-2.2-.7-2.2 6.9-2.2 7 0 7.6.2 6.9 1.7m58.4-1c-.2.5-1 2-1.7 3.5-1.1 2.1-1.2 5.8-.6 17l.7 14.4 8.6-.1c4.8 0 9.7-.5 11-.9 2.1-.8 2.2-.6 2.2 5.3v6.1h-33.5v-21.2c0-11.7-.4-22.1-.9-23.1-.7-1.5-.1-1.7 6.9-1.7 4.2 0 7.5.3 7.3.7m62.1 2c11.7 4.2 18.1 18.1 13.6 29.1-2.3 5.3-5.2 8.1-12 11.3-5.6 2.7-6.9 2.9-17.8 2.9h-11.8l.8-3.8c1-4.8 1-37 0-39.8-.7-2.1-.6-2.1 11-1.7 7.2.3 13.5 1 16.2 2m-338.5 3.9c.7 6.5.2 7.8-2.4 6.4-1-.5-4.2-1-7-1h-5.2l.4 17 .3 17h-11.1l.4-17.7.5-17.6-5.8.6c-3.2.3-6.3 1.1-6.8 1.6-2.4 2.4-3.2 1-2.9-5.4l.4-6.5h38.5zm-96.1.4c.5.4.4 1.7-.2 2.8S99 469 99 472.9s-.4 7.1-.9 7.1-1.1 1.8-1.5 4c-1.3 8.1-2.6 4-2.6-8.3 0-6.7-.3-13.3-.7-14.6-.6-2.2-.4-2.3 2.8-1.6 1.9.4 3.8 1.1 4.2 1.5m529.1 3.7c.3 2.5.6 7.4.6 10.9v6.4h13v3c0 4-2.3 5-11.4 5H624v-13.3c0-7.2-.3-14.1-.6-15.3-.5-1.8-.2-2 2.4-1.6 2.7.3 3 .8 3.6 4.9M77 462.5c0 1.9-.5 2.5-2.2 2.5-4.2 0-5.2 1.4-3.5 4.6.8 1.6 2.2 6 3.2 9.9 1 3.8 2.2 7.8 2.7 8.7.7 1.5.4 1.8-2.6 1.8-3.1 0-3.4-.3-4-3.5l-.7-3.5H64c-3.3 0-6 .4-6 .8 0 .5-.7 1.7-1.5 2.8-1.5 1.9-1.5 1.9-.9-.1.4-1.5 0-1.3-1.6.7-1.2 1.6-2.5 2.8-3 2.8-1.4 0 1.9-12.2 5.6-20.7 4-9 3.8-8.9 14.2-9.2 6-.1 6.2 0 6.2 2.4m517.9-.6c1.5 1.1 3.6 3.9 4.6 6.3s3.1 7.1 4.7 10.6c2 4.7 2.5 6.8 1.8 8-.7 1.4-1 1-1-1.8-.1-1.9-.4-2.9-.7-2.3-.2.7-1.3 1.3-2.3 1.3s-2 .8-2.3 1.7c-.3 1.3-.6.9-1.1-1.2-.4-1.7-1.1-3.9-1.6-5s-1.4-3.8-2.1-5.9c-.6-2.2-2-4.9-3-6-2-2.1-2.6-7.6-.8-7.6.6 0 2.3.9 3.8 1.9m78.7 6.7c3.6 2.4 5.7 6.9 4.4 9.3-1.2 2.4-5.8 6.1-7.5 6.1-.7 0-2.7-1.3-4.4-2.9-3.7-3.5-4.1-7.6-1-11.5 2.4-3 4.9-3.3 8.5-1m-637.6.9c3.9 2 4.9 5.9 2.3 9.3-3.2 4.3-6.8 4.6-10.8 1-1.9-1.6-3.5-3.8-3.5-4.7 0-2.6 4.9-6.7 8.3-7 .4-.1 2.1.6 3.7 1.4m548.4 2.1c2.6 1 1.9 5.1-1.3 7.3-3.4 2.4-4.1 2.5-7.5.9-5.8-2.6-3.4-8.8 3.5-8.8 2 0 4.4.3 5.3.6m11.3 7.8c1.3 1.2-1.2 2.6-4.7 2.6-4.1 0-6.1-1.6-3.9-3.1 1.3-.9 7.6-.5 8.6.5m-131.5 39.2 13.5.7-.5 2.4c-.3 1.8.1 2.6 1.7 3 1.1.3 1.8.9 1.5 1.4s.1.9.9.9 1.7.6 2 1.4 1.6 1.6 2.9 1.8-17.7.7-42.2 1.1c-43.4.7-224.1 0-224.9-.9-.2-.2.3-1.2 1.3-2.2.9-.9 2.7-3.3 3.9-5.2 1.4-2.2 3.4-3.7 5.2-4.1 4-.9 217.4-1.1 234.7-.3m187.3 24.5c-.3 1-.8 2.9-1.1 4.1-1.1 4-18.5 33.9-27.6 47.3-17.9 26.6-26 36.1-44.7 52.8-38.8 34.6-76.1 55.9-127.2 72.8-20.1 6.6-47 10.8-84.3 13-21.9 1.4-46 .4-66-2.6-21.5-3.3-58.6-14.6-81.1-24.7-22.8-10.2-51-26.9-68.9-40.7-7.3-5.5-29.9-26-30.5-27.4-.2-.6-3.7-4.5-7.7-8.7-9.9-10.3-22.2-26-32.5-41.5-8.4-12.8-21.3-35.4-24.4-42.8L54 541h8.7l5.3 9.7c23.2 42.4 50.2 76.2 82 102.7 7.7 6.4 11.4 9.1 28.5 20.1 14.7 9.6 44.5 24.1 64.2 31.3 34.6 12.8 61 18 96.8 19.1 26.2.9 37.8.1 68.5-4.4 42-6.3 86.5-23.8 124.8-49.1 33.1-21.9 44.3-32 66.7-59.9 12.7-16 23.3-31.4 31.7-46.4 3.2-5.7 5.8-10.5 5.8-10.6s1.3-3.1 2.9-6.6l2.9-6.4 4.6.3c4 .4 4.6.7 4.1 2.3m-444.9 4.4c14.8 5 23.8 12.1 29.1 23 4 8.3 3.9 8.8-2.5 20.2-4.8 8.7-6.8 10.1-7.7 5.5-2-9.3-3.1-11.7-7.7-16.8-7.3-7.9-15.4-11.6-25.9-11.6-9.7 0-16.9 3-22.3 9.4-5.3 6.2-7 10.4-7.4 19-.3 6.5 0 8.5 2 13 4.5 9.8 11.8 14.9 23.9 16.9 6.6 1.1 16.2-.2 21.2-2.7l2.9-1.5-.7 11.8c-.4 6.5-1 12.1-1.4 12.5-.3.3-6.3 1-13.2 1.4-11.5.6-13.2.5-19.3-1.6-8.2-2.7-20-10.3-25-16.1-9.1-10.6-13.6-22.5-13.6-36 0-20 9.8-35.8 27.2-43.9 14.3-6.7 25.8-7.4 40.4-2.5m152.5 2.2 3.3 2.8 18.7-.4c11.5-.2 20 .1 22 .8 1.9.5 4.7 1.3 6.3 1.6 1.5.3 2.6.8 2.4 1-.3.3-7.4.9-15.9 1.5-33.5 2.2-32.8 2.1-33.5 4.2-1.2 3.8-6.5 8.8-9.3 8.8-3.2 0-7.5-4.1-9.1-8.7l-1.1-3.1-11.7-.1c-6.4-.1-16.5-.4-22.4-.7-9.3-.6-10.8-.9-10.8-2.4s1.5-1.8 10.7-2.3c5.8-.4 16.2-.7 23.1-.7 11.8 0 12.6-.1 15.4-2.5 3.9-3.3 7.8-3.2 11.9.2m-245.3-.1c6 4.1 6.5 12.3 1.1 16.8-4.5 3.8-9.2 3.5-13.5-.8-3.8-3.8-4.3-7-1.9-11.6 2-3.8 5.2-6 9-6 1.7 0 4.1.7 5.3 1.6m492.3 2.3c4.7 4.7 5.1 8.5 1.3 13-5 6-15 3.3-17-4.5-1.3-5.3 4.4-12.3 10-12.4 1 0 3.6 1.7 5.7 3.9m-171.5 44.7c.5 8.3.4 11.3-.5 11.9-.8.4-1.8-.1-2.7-1.4-2.2-3-7.5-5-16.3-6-16.4-1.8-27.9 2.6-29.7 11.5-1.4 7 6.2 10.4 23.6 10.4 11.2 0 23.9 1.8 28.6 4.1 5.4 2.6 12.8 10.1 15.5 15.8 3.1 6.6 2.4 18.4-1.5 26-11 21.5-42.9 30.2-70.1 19.1l-7-2.8-2.2 2.6-2.3 2.7V687c0-1.9.7-6.2 1.4-9.5.8-3.3 2-9.8 2.7-14.5 1-7 1.4-8.1 2.3-6.6 2.9 5 7.1 8.5 13.8 11.6 15.6 7.2 37.1 4.1 42.3-6 2.1-4.1 1.9-8.3-.7-11.5-3.8-4.8-7.7-5.8-27.4-6.5-17-.6-18.4-.8-23.7-3.4-6.6-3.2-10.9-7.2-14-13-3-5.7-3.1-19.2-.2-25.1 2.9-6 10.3-12.8 17.6-16.3 9.4-4.5 16.8-5.6 29.6-4.6 5.9.5 11.5.9 12.3.9s2.4-1.7 3.5-3.7l2-3.7 1.2 5.2c.7 2.9 1.6 10.2 1.9 16.3M283.8 578c5.8 2.2 26.3 6 32.7 6 9.2.1 11.1 2.6 4.5 6-2.3 1.2-4.4 2.8-4.7 3.7-1.3 3.4 5.1 33.2 8.8 40.8 1.1 2.4 3.9 5.4 6.9 7.5 2.7 1.9 5 3.8 5 4.1s-2.5 1.1-5.5 1.8-5.5 1.6-5.5 2 1.1 4.1 2.5 8.2 3.4 11.3 4.5 16.1c2.4 10.8 4.1 14.3 9.3 19l4.2 3.7-3.5.1c-7.7 0-45-4.9-45-6 0-.3 3-2.2 6.8-4.2 6.4-3.4 6.7-3.7 7-7.4.1-2.2-.4-6.1-1.1-8.9l-1.3-5-10.5-2.2c-19.6-4.2-35.3-6.4-36.1-5-.4.7-2.2 3.7-4.2 6.7-3.9 6.1-3.7 7.3 2.3 13.8 1.7 1.8 3.1 3.5 3.1 3.8 0 .2-1.3.4-2.9.4-2.9 0-37.8-12.5-39.6-14.2-1.3-1.2.8-2.4 5.4-3.2 6.5-1.1 9.6-4 19-18.1l9.1-13.6-3.5-3c-3.9-3.5-3.8-4.9.5-4.9 5 0 7.8-1.8 10.6-6.7 3.1-5.4 12.8-19.7 17.4-25.7 3.8-4.9 3.8-7.1 0-10.4-1.7-1.5-3-3.6-3-4.9 0-2.8.2-2.8 6.8-.3"/><path d="M285.5 81c-.3.6.1.7.9.4 1.8-.7 2.1-1.4.7-1.4-.6 0-1.3.4-1.6 1M455.3 104.4c2 2 4 3.5 4.5 3.4.4-.1 1.7.3 3 1.1 1.3.7 2.8 1.1 3.3.9 1.5-.5-8.3-7.6-11.6-8.3l-3-.7zM420.2 122c-.2 3-.7 7.3-1.2 9.5-1.2 5.3-.4 5.8 1 .6.6-2.3.9-6.7.7-9.9l-.3-5.7zM286.8 122.5c-.7 1.1-.6 2 .7 11.5.8 5.8 5.4 15.7 8.7 18.7 1.4 1.3 1-.2-1.5-4.7-3.5-6.2-6.2-15.5-6.9-23-.2-1.9-.6-3-1-2.5"/><path d="M303.7 133c.8 3.6 3 6.8 5.5 8.1 7.2 3.8 14.1 10.4 18.3 17.7 2.5 4.2 4.5 8.4 4.5 9.4 0 .9-2.4 7.2-5.4 14s-8.6 19.5-12.4 28.3-11.4 26.3-16.9 39c-5.5 12.6-12.7 29.5-16 37.5-13.6 32.4-17.6 41.7-19.9 45.7-3.4 5.7-10 11.5-15.7 13.9-4.7 1.9-4.8 2-4.2 5.4.4 1.9 1 3.9 1.5 4.4.5.4 14 1 30.1 1.2 22.5.3 29.5.1 30.1-.9 1.5-2.3.8-4.7-1.5-5.6-7.6-2.9-12.3-11.7-10.7-20.2 1.1-5.5 6.8-21.4 10.9-29.9 1.7-3.6 3.1-7.1 3.1-7.8 0-.9 7.3-1.2 33.3-1.2 18.4 0 36.8-.3 41-.6 5.6-.5 7.7-.4 7.7.5 0 .6 2.4 7.3 5.4 14.9 3 7.5 6.4 17.1 7.7 21.4l2.2 7.6-2.2 4.4c-1.2 2.3-3.7 6-5.6 8.2-2.3 2.5-3.5 4.8-3.5 6.8v3l33.8-.4c20.9-.2 34-.7 34.4-1.3.9-1.2 1.1-10.1.2-9.2-1 1-8.1-3-12.5-7-2.2-2-5.1-5.5-6.4-7.7-2.4-4.2-13.7-31.5-23.1-55.9-2.9-7.6-7.4-18.6-9.8-24.5-2.5-5.9-7.3-18.1-10.7-27.2s-9.3-24.7-13-34.8c-4.6-12.3-6.9-19.7-6.9-22.6 0-5.4 2.2-11.9 5.5-16.3 3-3.8 10.5-9.2 14.3-10.2 2-.6 2.9-1.7 3.9-4.9.6-2.3.9-4.3.5-4.3-.4-.1-22.6-.4-49.4-.8l-48.7-.6zm47.7 78c2.5 5.8 6.6 15.4 9.2 21.5 5.6 13.4 11.6 30.6 10.8 31.4-.6.6-48.4 1-49.6.4-1.3-.7 8.2-27.7 18.6-52.8 2.5-6.1 4.6-11.7 4.6-12.5 0-2.4 1.3.1 6.4 12"/><path d="M345.3 241.1c-.7 1.7-1 2.9-.6 2.6.3-.4 1.4.4 2.3 1.6 1 1.2 2.1 1.9 2.5 1.5.7-.7-1.5-8.8-2.4-8.8-.4 0-1.2 1.4-1.8 3.1M350.5 250c-.3.5.1 1 .9 1 .9 0 1.6-.5 1.6-1 0-.6-.4-1-.9-1-.6 0-1.3.4-1.6 1M256.3 137.9c-.3 1.2-1.2 2.1-2 2.1s-1.7.9-2 2-1.1 2-1.8 2c-.9 0-1.4 3.5-1.8 12.7-.7 15.1-.4 102.9.3 103.6.3.3 1.9.8 3.6 1.1 2.5.6 3.3.3 3.9-1.1 1.2-2.6 1.5-113.4.4-115.5-.7-1.2-.5-2.7.6-4.7 1-2 1.2-3.2.4-3.6-.6-.4-1.3.2-1.6 1.4M451.8 136.7c-2.5.6-2.9 4.6-2.6 26.8l.3 20 3.4.3c1.8.2 3.7 0 4.2-.5.4-.4.9-10.6 1.1-22.6.2-20.6.1-22-1.7-23.3-1-.8-2.1-1.3-2.4-1.3-.3.1-1.4.3-2.3.6M449.4 202.7c-.8.6-1.3 8.8-1.6 25.5l-.4 24.8 3.3.6c6.1 1.1 6 1.3 6.8-19.8.4-10.6.5-22 .3-25.3l-.3-6-3.5-.3c-1.9-.1-4 .1-4.6.5M333.8 306.7c1.2.2 3 .2 4 0 .9-.3-.1-.5-2.3-.4-2.2 0-3 .2-1.7.4M375.7 316.6c-.9 13.4-.9 23.8 0 28.7l.6 3.8 3.9-3.8c2.2-2.1 4.8-5.2 5.9-7 1.9-3.1 1.9-3.2 0-12-3-13.1-5.6-19.7-7.9-20.1-1.7-.3-1.9.6-2.5 10.4M347.3 319.2c-1.3 2.1-1.7 51.2-.4 53.7.9 1.6 2.1 2.1 4.9 2.1 6.9 0 6.6.8 7.1-27.5.3-23.4.2-25.8-1.4-27.5-2.1-2.3-8.9-2.8-10.2-.8M201.7 185c-.3 1.1-.2 2 .3 2 .4 0 1-.9 1.3-2s.2-2-.3-2c-.4 0-1 .9-1.3 2M202 188.9c0 .5-1 1.3-2.1 1.6-1.3.4-1.7 1-1.1 1.4.6.3 1 1.3 1 2.1-.4 6.7 2 8.1 4.2 2.5 1.3-3.3 2.2-4 4.4-3.6.5.1.6-.5.2-1.4-.3-.9-.6-2.1-.6-2.6s-1.3-.9-3-.9c-1.6 0-3 .4-3 .9"/><path d="M205 197.6c0 .8.5 1.2 1 .9.6-.3 1-1 1-1.6 0-.5-.4-.9-1-.9-.5 0-1 .7-1 1.6M204 201.5c0 .8.2 1.5.4 1.5s.6-.7 1-1.5c.3-.8.1-1.5-.4-1.5-.6 0-1 .7-1 1.5M187.2 264.5c0 1.6.2 2.2.5 1.2.2-.9.2-2.3 0-3-.3-.6-.5.1-.5 1.8M501.6 235.8c-.8 2.4.2 7.2 1.5 7.2 1.2 0 1.1-6.1 0-7.9-.7-1.1-1-.9-1.5.7M537.1 205.6c0 1.1.3 1.4.6.6.3-.7.2-1.6-.1-1.9-.3-.4-.6.2-.5 1.3M538.4 214.2c.8 4.5 1.2 5.5 1.4 3.4.4-3.6-.6-9.6-1.6-9.6-.5 0-.3 2.8.2 6.2M545.6 217.8c-.4.7-.5 1.2-.2 1.2s.1 1.2-.5 2.7-.7 2.4-.3 2.1c.3-.4 1.5.3 2.6 1.5l1.9 2.2-.7-3.5c-1-5.5-2-7.5-2.8-6.2M65.2 270.6c-1.2 2.5-2 5-1.7 5.5.8 1.2 9.5 1.2 9.5 0 0-1.8-3.9-10.1-4.8-10.1-.4 0-1.8 2.1-3 4.6M363 475.2c-1.4 2.9-2.6 5.6-2.8 6-.2.5 2.1.8 5.2.8h5.5l-2.1-5.3c-1.2-2.8-2.4-5.5-2.8-6-.3-.4-1.7 1.6-3 4.5M519.1 477.1v12.4l6.4-.5c5.3-.4 6.9-1 9.4-3.4 3.9-3.7 4.9-8.7 2.8-13.2-2-4.1-6.3-6.4-13.3-7.1l-5.4-.6zM60.8 472c-.9 2.8-1.3 5.2-1 5.4.4.2 2.4.6 4.5 1 3.2.6 3.7.5 3.7-1.3 0-3.5-3.4-10.1-5.2-10.1-.2 0-1 2.3-2 5M336 726c0 1.3 4 1.3 6 0 1.1-.7.5-1-2.2-1-2.1 0-3.8.4-3.8 1M335.8 732.7c.7.3 1.6.2 1.9-.1.4-.3-.2-.6-1.3-.5-1.1 0-1.4.3-.6.6M357.8 732.7c.7.3 1.6.2 1.9-.1.4-.3-.2-.6-1.3-.5-1.1 0-1.4.3-.6.6M293.4 610.2c-3.7 7.3-15.8 26-17.7 27.3-1.8 1.3-1.7 1.4 1.9 2 2.2.4 8.9 1.7 14.9 3 6.1 1.3 11.2 2.1 11.4 1.9.3-.3-7.9-36.6-8.5-37.2-.1-.2-1 1.1-2 3"/></svg>