<?xml version="1.0" standalone="no"?>
<!DOCTYPE svg PUBLIC "-//W3C//DTD SVG 20010904//EN"
 "http://www.w3.org/TR/2001/REC-SVG-20010904/DTD/svg10.dtd">
<svg version="1.0" xmlns="http://www.w3.org/2000/svg"
 width="706.000000pt" height="752.000000pt" viewBox="0 0 706.000000 752.000000"
 preserveAspectRatio="xMidYMid meet">

<g transform="translate(0.000000,752.000000) scale(0.100000,-0.100000)"
fill="#000000" stroke="none">
<path d="M3370 7509 c-91 -4 -203 -13 -250 -19 -79 -11 -131 -22 -440 -96
-125 -29 -396 -117 -528 -170 -84 -34 -185 -85 -322 -164 -41 -23 -104 -58
-140 -78 -96 -53 -187 -116 -325 -228 -44 -35 -102 -82 -130 -103 -83 -64
-294 -296 -389 -428 -36 -48 -73 -100 -85 -114 -26 -34 -159 -235 -194 -296
-137 -233 -188 -337 -292 -588 -49 -120 -130 -374 -164 -515 -34 -145 -74
-361 -67 -367 3 -3 239 -4 525 -4 l520 2 20 -67 c12 -36 18 -71 14 -77 -4 -7
-171 -8 -550 -4 l-543 6 0 -40 0 -41 567 3 568 3 9 -27 c5 -15 7 -30 3 -33 -4
-4 -217 -7 -475 -7 -257 0 -513 -2 -569 -5 l-103 -4 0 -29 0 -29 143 -2 c78
-1 339 0 580 2 l437 3 20 -23 c26 -29 25 -36 -2 -44 -13 -3 -273 -6 -578 -6
-305 0 -565 -3 -577 -6 -17 -5 -23 -14 -23 -35 l0 -29 633 0 634 0 11 -25 c7
-14 12 -28 12 -30 0 -3 -217 -6 -482 -6 -266 -1 -557 -5 -648 -8 l-165 -6 0
-30 0 -30 678 -3 677 -2 12 -25 c6 -14 8 -28 4 -33 -4 -4 -144 -6 -309 -4
-166 2 -474 0 -684 -4 l-383 -6 0 -28 0 -29 148 -4 c81 -2 409 -2 729 1 l583
4 11 -26 c7 -14 10 -28 8 -30 -2 -2 -332 -6 -733 -10 -401 -4 -733 -9 -738
-12 -12 -7 -10 -42 3 -49 5 -4 362 -8 791 -10 l782 -2 25 -29 24 -29 -814 -6
c-448 -3 -815 -6 -816 -7 -2 -1 -3 -22 -3 -47 l0 -45 869 0 868 0 7 -39 c9
-60 2 -68 -67 -77 -34 -4 -379 -7 -767 -7 -388 1 -748 -2 -800 -5 l-95 -7 -1
-396 -2 -396 759 -5 758 -4 23 -29 c13 -16 33 -46 44 -66 l22 -37 -733 -4
c-403 -1 -737 -6 -741 -11 -13 -12 48 -67 107 -98 81 -40 93 -57 236 -314 171
-307 499 -726 711 -908 336 -289 655 -483 1067 -650 232 -94 533 -174 780
-208 125 -17 738 -18 875 -1 126 15 221 30 275 42 22 5 85 19 140 31 247 52
590 183 860 328 141 76 396 245 523 347 135 109 327 295 438 427 143 171 358
506 483 755 34 68 62 109 85 127 19 14 53 50 74 79 l40 53 -186 6 c-103 3
-356 3 -562 0 -221 -3 -416 -1 -475 5 l-100 10 -30 -29 c-47 -45 -188 -339
-241 -500 -4 -13 27 -27 163 -72 242 -81 323 -99 416 -95 42 2 77 -1 77 -5 0
-27 -202 -207 -332 -295 -82 -56 -101 -35 -47 50 46 72 55 65 -213 158 l-167
59 -12 -37 c-17 -54 -58 -132 -69 -132 -5 0 9 -42 31 -94 21 -52 39 -101 39
-110 0 -21 13 -27 87 -36 35 -5 67 -11 71 -14 15 -15 -56 -62 -212 -141 -146
-73 -206 -97 -206 -81 0 2 16 27 35 55 60 90 59 96 -35 316 -29 66 -62 145
-75 175 -97 232 -171 379 -195 391 -8 4 -34 12 -57 18 -24 7 -43 18 -43 25 0
8 34 26 78 41 42 16 126 53 186 82 126 63 146 60 97 -13 -17 -26 -31 -56 -31
-67 0 -22 122 -337 131 -337 3 0 21 39 39 88 18 48 66 154 107 236 48 97 70
153 64 159 -6 6 -27 13 -48 16 -28 5 -39 12 -41 26 -3 22 6 27 208 111 107 44
160 86 160 127 0 15 8 18 53 16 28 -1 102 4 162 10 69 8 341 13 727 14 339 1
618 4 621 7 3 3 2 185 -2 405 l-6 400 -800 2 c-440 1 -849 5 -910 8 -60 3
-122 5 -137 6 -16 0 -28 2 -28 5 0 3 19 25 43 48 l42 43 105 7 c58 4 463 7
901 7 437 -1 797 1 800 3 2 3 3 25 1 50 l-4 46 -332 0 c-182 0 -511 3 -731 7
-352 6 -392 8 -330 19 l70 11 -52 2 c-29 0 -53 6 -53 11 0 7 174 10 503 10
277 0 599 3 715 7 l212 6 0 27 0 27 -232 6 c-128 4 -422 8 -653 9 -231 1 -389
4 -350 5 43 3 76 10 86 19 9 8 23 12 31 9 8 -3 48 1 89 10 61 12 159 15 552
15 l477 0 0 28 0 29 -292 6 c-161 4 -410 7 -553 8 -143 0 -269 4 -280 9 -19 8
-18 9 4 9 13 1 22 4 18 7 -3 4 0 13 8 20 11 12 102 14 513 14 275 0 520 3 546
6 43 6 47 9 44 33 -3 25 -5 26 -93 32 -49 4 -286 8 -525 10 -239 1 -442 6
-451 10 -9 5 -69 10 -132 11 -103 3 -114 5 -101 18 13 13 102 15 654 19 688 3
661 1 645 52 -6 18 -31 19 -618 21 -337 1 -555 4 -486 7 73 4 132 11 140 18 8
6 30 13 49 16 24 2 14 5 -30 7 -63 2 -64 3 -22 10 24 3 181 6 350 4 169 -1
376 1 460 4 l153 5 -3 31 -3 31 -215 0 c-454 0 -735 6 -722 14 7 4 24 6 38 3
14 -2 24 0 24 7 0 6 -8 12 -17 13 -10 0 -30 2 -44 3 -14 1 -34 7 -44 12 -27
15 464 27 753 19 l233 -7 -3 38 -3 38 -385 -3 c-310 -2 -540 4 -698 20 -9 1
-11 11 -7 30 3 15 7 41 11 57 l5 29 362 7 c199 4 441 5 537 3 l174 -3 -2 45
c-7 110 -88 445 -166 687 -190 583 -612 1236 -1031 1592 -262 223 -566 410
-914 565 -217 96 -257 110 -479 166 -272 68 -421 97 -601 115 -165 16 -214 17
-471 4z m399 -185 l31 -6 0 -83 0 -82 -237 0 c-131 0 -252 -3 -269 -7 l-32 -7
5 48 c13 117 17 127 48 134 40 9 414 11 454 3z m276 -44 c239 -62 561 -185
655 -250 14 -9 52 -32 85 -50 98 -54 276 -178 340 -239 33 -31 71 -66 85 -76
70 -56 270 -302 270 -333 0 -8 -23 -37 -52 -64 -50 -46 -52 -47 -71 -30 -11 9
-31 34 -44 56 -33 52 -181 205 -266 275 -37 31 -91 75 -120 99 -134 112 -394
270 -534 325 -93 37 -346 112 -412 123 -21 3 -42 9 -48 13 -5 3 -7 46 -5 94 4
76 6 87 21 83 9 -3 52 -14 96 -26z m-901 -12 c3 -18 7 -56 9 -84 l4 -51 -96
-23 c-138 -32 -411 -125 -516 -174 -92 -43 -365 -218 -465 -297 -91 -72 -227
-208 -321 -321 l-90 -107 -60 30 c-34 17 -63 28 -67 25 -3 -3 0 -6 6 -6 7 0
12 -9 12 -21 0 -12 16 -37 36 -57 l36 -36 -71 -140 c-171 -344 -262 -723 -246
-1026 7 -144 63 -461 99 -565 68 -197 171 -420 238 -517 10 -15 15 -34 12 -45
-4 -12 -3 -14 3 -5 7 10 13 8 27 -7 17 -19 17 -20 -3 -30 -11 -6 -27 -11 -35
-11 -9 0 -16 -5 -16 -10 0 -6 -12 -15 -26 -20 -20 -8 -24 -14 -18 -32 5 -16
-1 -13 -23 13 -102 120 -265 454 -317 649 -26 98 -68 309 -87 440 -23 164 -9
431 37 653 59 290 221 687 314 772 11 10 20 26 20 35 0 49 138 206 405 461
109 104 441 302 635 379 110 44 349 121 431 139 121 28 127 27 133 -11z m615
-319 c30 -5 56 -10 58 -12 2 -2 -7 -48 -19 -102 l-22 -98 -65 7 c-37 3 -81 6
-99 6 -31 0 -33 2 -30 33 3 31 5 32 53 36 l50 5 -50 5 -50 6 -3 54 c-2 29 -1
59 2 67 5 14 69 11 175 -7z m-269 -93 l0 -104 -92 -4 c-112 -5 -120 -3 -117
31 2 14 -2 35 -8 46 -18 34 -24 103 -11 112 15 9 99 19 176 22 l52 1 0 -104z
m545 39 c154 -42 425 -148 425 -166 0 -24 -51 -118 -78 -142 -28 -27 -31 -28
-58 -14 -62 32 -263 105 -334 122 -41 10 -79 21 -84 26 -5 4 -6 19 -2 33 6 24
9 26 49 20 68 -9 133 -33 163 -59 16 -14 33 -25 37 -25 5 0 6 -3 4 -7 -3 -5
27 -9 66 -11 40 -2 70 -2 67 1 -11 10 -308 115 -342 121 -36 6 -37 8 -32 44 8
61 14 82 22 82 4 0 48 -11 97 -25z m-904 -21 c4 -16 11 -51 17 -79 5 -27 11
-57 13 -65 3 -11 -16 -19 -76 -33 -101 -23 -210 -60 -298 -100 l-69 -31 -19
25 c-39 49 -90 142 -82 150 28 28 345 143 433 158 70 11 73 10 81 -25z m-573
-274 c23 -44 42 -84 42 -90 0 -5 -28 -28 -62 -51 -79 -53 -191 -141 -240 -187
-26 -25 -40 -32 -52 -25 -26 14 -116 126 -116 143 0 9 32 42 70 75 76 65 289
214 305 214 6 0 29 -35 53 -79z m2165 -49 c68 -55 136 -114 151 -132 l27 -32
-58 -62 c-32 -35 -63 -63 -68 -64 -10 -1 -112 85 -185 156 -19 19 -52 43 -72
54 l-37 19 50 80 c28 44 55 80 59 80 5 0 64 -45 133 -99z m-973 49 c6 -8 10
-66 10 -127 l0 -113 83 1 c45 1 71 4 58 6 -24 5 -24 5 -17 106 4 56 8 103 10
104 2 2 20 -3 42 -11 l39 -15 -31 0 c-23 -1 -33 -7 -37 -22 -3 -11 0 -22 6
-24 20 -7 167 -43 168 -41 0 0 2 11 3 23 2 13 5 25 7 27 2 2 40 -10 84 -26
l81 -29 -1 -683 c0 -659 1 -685 19 -705 76 -84 94 81 95 859 1 217 4 410 8
428 l8 33 75 -51 c81 -56 233 -199 255 -241 12 -22 14 -182 14 -955 0 -511 3
-984 7 -1050 6 -113 5 -125 -15 -168 -28 -58 -83 -103 -141 -118 -33 -8 -62
-28 -108 -72 -51 -48 -65 -57 -72 -46 -14 22 -12 94 3 109 10 10 -1 11 -53 9
l-65 -3 -3 -87 c-2 -53 -7 -90 -15 -95 -23 -18 -173 -71 -271 -98 -55 -14
-103 -28 -108 -31 -4 -3 -8 65 -8 150 l0 156 83 2 82 1 -105 8 c-58 4 -124 5
-147 2 l-43 -5 3 -158 c1 -87 0 -161 -3 -163 -14 -15 -195 -29 -290 -23 -162
9 -147 -8 -155 174 -4 87 -5 309 -3 495 l5 337 -61 0 -61 0 2 -485 c1 -448 0
-485 -15 -481 -10 3 -48 12 -87 21 -90 20 -156 41 -228 73 l-58 25 5 41 c3 23
8 65 11 94 l6 52 -66 0 -65 0 0 -47 c0 -75 -8 -78 -76 -37 -32 20 -95 57 -139
82 -153 85 -162 98 -165 227 -1 44 -1 82 -1 85 1 3 4 441 7 975 3 678 8 971
15 976 6 4 8 16 4 28 -5 15 -2 21 10 21 9 0 14 4 11 9 -3 5 7 22 23 38 38 40
107 92 97 73 -4 -8 2 -3 14 13 12 15 27 27 34 27 6 0 18 9 26 20 8 11 20 20
27 20 7 0 13 5 13 12 0 6 3 9 6 5 4 -3 13 0 21 8 20 20 39 20 23 0 -11 -13
-10 -14 3 -9 10 3 17 -1 19 -13 3 -11 9 0 15 27 14 65 29 -278 25 -620 -2
-272 11 -702 23 -732 4 -9 19 -21 35 -26 27 -10 29 -8 44 33 15 38 17 118 16
751 -2 668 -1 709 16 721 10 7 27 10 37 7 13 -4 17 -2 13 5 -4 6 -5 11 -2 11
2 0 11 3 20 6 11 4 16 1 16 -10 0 -10 9 -16 25 -16 36 0 32 -32 -7 -71 l-33
-32 41 31 c22 17 52 36 67 43 14 6 24 16 20 22 -3 6 -2 7 4 4 5 -3 33 5 61 19
45 22 52 29 52 54 0 20 5 30 15 30 12 0 15 -19 15 -110 l0 -110 60 0 59 0 3
123 3 122 38 3 c28 2 39 -1 44 -14 4 -10 2 -19 -5 -22 -25 -8 -11 -20 28 -24
22 -2 40 0 40 4 0 5 7 8 15 8 7 0 18 6 22 14 4 8 22 16 38 19 24 3 21 4 -13 6
-29 1 -41 5 -36 12 11 18 263 7 274 -11z m2011 -105 c113 -106 240 -250 340
-385 385 -521 622 -1036 715 -1552 6 -37 6 -38 -25 -38 -32 0 -34 3 -57 105
-28 125 -90 338 -123 425 -69 186 -204 466 -304 635 -136 229 -408 575 -601
765 -61 59 -79 94 -59 113 16 16 38 3 114 -68z m-4341 16 c0 -5 -13 -22 -28
-37 -100 -101 -315 -357 -424 -504 -144 -195 -343 -545 -440 -775 -61 -144
-128 -354 -158 -494 -40 -183 -44 -193 -73 -189 -21 3 -22 7 -19 71 5 107 105
443 192 647 83 193 107 244 167 343 29 48 62 106 74 130 62 122 327 487 444
612 53 56 68 66 76 55 8 -12 9 -11 7 5 -2 14 3 20 17 20 11 0 21 9 25 21 9 34
48 77 65 70 8 -3 14 0 12 6 -1 7 12 15 28 19 17 4 31 7 33 8 1 0 2 -3 2 -8z
m540 -165 c0 -16 -97 -126 -111 -126 -17 0 -9 21 24 56 83 92 87 95 87 70z
m219 -183 c3 -2 -11 -20 -31 -41 -47 -49 -108 -131 -119 -159 -8 -22 -9 -22
-81 27 -41 26 -82 57 -92 69 -17 19 -17 21 12 63 17 24 60 74 97 111 l67 68
71 -67 c40 -38 74 -70 76 -71z m2948 -26 c28 -39 43 -71 37 -75 -5 -5 -39 -32
-75 -60 l-66 -51 -82 105 -82 106 47 52 c87 95 83 93 132 39 24 -27 64 -78 89
-116z m455 47 c60 -86 191 -383 232 -524 26 -92 64 -299 75 -414 14 -140 14
-356 1 -356 -5 0 -10 -8 -10 -17 0 -15 2 -16 10 -3 5 8 10 11 10 5 0 -17 -14
-30 -33 -32 -14 -1 -17 4 -14 17 2 10 1 24 -4 31 -5 9 -9 9 -9 3 0 -7 -16 -15
-35 -18 -19 -4 -41 -13 -48 -21 -12 -12 -14 -1 -10 78 3 52 10 96 17 102 13
11 10 45 -4 45 -4 0 -11 44 -15 98 -20 278 -90 513 -245 822 -38 77 -70 144
-70 150 0 6 25 22 55 36 34 15 53 29 49 36 -4 6 -1 9 7 6 8 -3 26 -22 41 -44z
m-3393 -1193 c1 -1043 12 -955 -97 -787 -114 176 -211 450 -195 549 4 24 2 37
-6 37 -6 0 -11 -6 -12 -12 -1 -22 -15 34 -23 90 -5 37 -4 52 4 47 5 -3 10 2
10 12 1 10 9 73 19 139 13 88 24 130 40 152 41 58 100 215 70 185 -7 -7 -13
-22 -14 -35 -3 -35 -25 -34 -25 1 0 27 -4 31 -26 31 -21 0 -24 3 -19 23 5 20
5 20 -9 -3 -51 -84 22 129 77 225 33 58 47 75 65 75 15 0 22 6 22 19 0 11 -4
23 -10 26 -9 6 14 52 33 66 5 3 9 10 9 15 0 5 17 37 37 71 l36 62 7 -37 c4
-20 7 -448 7 -951z m-347 940 c18 -15 47 -36 65 -45 36 -18 36 -18 -7 -104
-12 -24 -36 -77 -55 -118 -19 -41 -38 -74 -42 -74 -30 0 -168 60 -171 74 -4
19 96 228 128 269 27 34 41 34 82 -2z m3101 -109 c145 -238 226 -458 247 -672
19 -186 -13 -408 -90 -625 -39 -110 -144 -322 -208 -418 l-27 -40 -6 34 c-10
49 -20 1461 -12 1671 5 140 9 176 19 168 6 -6 41 -59 77 -118z m333 71 c49
-111 107 -223 116 -223 4 0 8 -6 8 -14 0 -8 -14 -17 -32 -20 -18 -3 -57 -17
-85 -31 l-52 -24 -70 142 c-60 123 -67 143 -54 152 9 6 34 24 57 42 63 48 81
44 112 -24z m-3216 -142 c0 -5 -7 -11 -14 -14 -10 -4 -13 -1 -9 9 6 15 23 19
23 5z m-373 -223 c50 -23 72 -38 73 -51 0 -18 -38 -243 -45 -264 -3 -8 -15 -9
-42 -3 -21 5 -64 5 -95 1 l-58 -8 0 30 c0 46 73 327 84 327 6 0 43 -14 83 -32z
m3760 -5 c17 -70 59 -298 54 -300 -3 -1 -48 -3 -98 -6 -92 -4 -93 -4 -93 19 0
13 -12 74 -26 134 -14 61 -24 112 -22 114 13 8 155 64 165 65 7 0 16 -11 20
-26z m-3556 -156 c-10 -9 -11 -8 -5 6 3 10 9 15 12 12 3 -3 0 -11 -7 -18z
m-14 -69 c-3 -8 -6 -5 -6 6 -1 11 2 17 5 13 3 -3 4 -12 1 -19z m2 -60 c0 -31
-1 -31 -10 -10 -5 13 -7 28 -3 33 10 16 14 9 13 -23z m-264 -116 c28 -12 58
-23 68 -26 16 -5 17 -18 15 -128 l-3 -122 -40 -9 c-48 -10 -101 -49 -90 -67 6
-9 29 -11 86 -7 l77 6 7 -52 c18 -131 109 -373 170 -454 15 -19 25 -35 24 -37
-2 -1 -24 -14 -48 -30 -24 -15 -63 -46 -88 -68 -24 -23 -45 -39 -46 -37 -37
47 -182 450 -207 574 -6 33 -19 92 -27 130 -16 76 -22 295 -9 333 9 28 31 27
111 -6z m3836 -79 c2 -91 -2 -207 -7 -212 -2 -2 -29 3 -61 10 l-58 14 4 120
c2 74 8 123 15 127 6 4 32 8 59 8 l47 0 1 -67z m-4713 -142 c12 -26 37 -91 56
-144 19 -53 40 -105 46 -117 10 -19 8 -20 -39 -20 -49 0 -50 1 -53 33 l-3 32
-70 0 -69 0 -10 -32 c-8 -30 -12 -33 -49 -33 -27 0 -38 4 -34 13 3 6 34 81 69
164 l63 153 36 0 c34 0 38 -3 57 -49z m5752 24 c-19 -20 -33 -25 -73 -25 l-50
0 7 -49 c8 -57 1 -81 -24 -81 -10 0 -24 -9 -31 -21 -12 -18 -14 -6 -11 90 l3
111 101 0 101 0 -23 -25z m-653 -77 c-3 -8 -6 -5 -6 6 -1 11 2 17 5 13 3 -3 4
-12 1 -19z m50 -50 c-3 -7 -5 -2 -5 12 0 14 2 19 5 13 2 -7 2 -19 0 -25z
m-484 -37 c10 -10 -38 -241 -74 -356 -10 -34 -44 -98 -79 -149 -33 -48 -60
-93 -60 -98 0 -6 -15 3 -34 20 -19 16 -40 32 -48 34 -10 4 -9 11 5 34 72 117
172 380 184 487 l6 49 46 -6 c25 -3 49 -10 54 -15z m85 -17 c6 -2 12 -14 11
-26 0 -22 -1 -22 -9 -3 -5 11 -9 14 -9 8 -1 -18 -26 -16 -45 3 -32 31 -13 38
52 18z m386 -73 c-4 -23 -9 -40 -11 -37 -3 3 -2 23 2 46 4 23 9 39 11 37 3 -2
2 -23 -2 -46z m522 19 c26 0 63 5 81 12 38 14 48 7 58 -39 l7 -33 -132 0 -132
0 7 37 c10 52 14 56 41 39 13 -9 45 -16 70 -16z m-539 -112 c-3 -7 -5 -2 -5
12 0 14 2 19 5 13 2 -7 2 -19 0 -25z m-10 -55 c-3 -10 -5 -4 -5 12 0 17 2 24
5 18 2 -7 2 -21 0 -30z m-40 -155 c-3 -8 -6 -5 -6 6 -1 11 2 17 5 13 3 -3 4
-12 1 -19z m-466 -139 c-11 -24 -20 -39 -20 -32 -1 14 31 84 36 79 2 -2 -5
-23 -16 -47z m-3287 -203 c24 -34 57 -74 74 -89 l29 -28 -61 -65 -60 -64 -64
62 c-56 56 -140 166 -130 172 1 1 17 10 33 21 17 10 47 38 69 62 l38 44 14
-27 c8 -15 34 -54 58 -88z m3049 56 c42 -43 45 -49 25 -48 -16 1 -23 -4 -22
-16 1 -10 -2 -15 -7 -12 -5 3 -9 -2 -9 -10 0 -22 -20 -70 -26 -63 -3 3 0 16 7
29 7 13 -16 -3 -52 -37 -35 -32 -64 -67 -63 -76 1 -25 -28 -8 -56 31 -19 27
-20 33 -8 49 48 67 154 201 158 201 3 0 27 -22 53 -48z m87 -95 c0 -6 -24 -36
-52 -66 -29 -31 -63 -69 -76 -85 -27 -32 -42 -28 -18 5 15 21 14 25 -5 45 -14
15 -17 24 -10 29 7 4 10 1 9 -7 -2 -9 6 -12 26 -11 38 3 110 75 103 104 -4 16
-3 18 9 8 8 -6 14 -16 14 -22z m793 -14 c-29 -2 -78 -2 -110 0 -32 2 -8 3 52
3 61 0 87 -1 58 -3z m-1132 -195 l19 -36 -145 -97 c-80 -53 -147 -101 -151
-106 -10 -16 4 -23 20 -10 8 7 36 11 62 10 l47 -3 -36 -31 c-20 -17 -52 -40
-72 -51 l-37 -19 -34 40 c-18 22 -41 55 -50 73 -19 41 -13 50 70 98 34 19 106
72 161 118 111 93 105 92 146 14z m-2388 -118 c70 -41 127 -81 127 -89 0 -28
-73 -141 -91 -141 -4 0 -22 18 -39 40 -26 33 -30 43 -20 55 7 8 10 22 6 30 -3
9 -2 13 4 10 6 -3 10 0 10 7 0 7 -22 24 -50 37 -37 18 -198 118 -218 136 -2 2
7 23 20 48 l23 45 51 -52 c29 -29 104 -83 177 -126z m3365 133 c-15 -2 -42 -2
-60 0 -18 2 -6 4 27 4 33 0 48 -2 33 -4z m110 0 c-16 -2 -40 -2 -55 0 -16 2
-3 4 27 4 30 0 43 -2 28 -4z m-3766 -88 c-4 -25 -16 -32 -27 -16 -3 5 2 17 11
25 21 21 22 20 16 -9z m2722 -39 c-16 -13 -31 -23 -33 -21 -2 2 10 15 25 29
16 13 31 23 33 21 2 -2 -10 -15 -25 -29z m974 -93 c-10 -2 -26 -2 -35 0 -10 3
-2 5 17 5 19 0 27 -2 18 -5z m-155 -50 c-7 -2 -19 -2 -25 0 -7 3 -2 5 12 5 14
0 19 -2 13 -5z m-2788 -87 c61 -19 139 -40 175 -47 36 -6 68 -15 72 -18 8 -7
-9 -81 -21 -94 -5 -4 -57 8 -117 27 -213 69 -364 107 -364 91 0 -18 22 -45 32
-39 6 4 8 3 4 -4 -3 -5 0 -13 6 -16 18 -8 -31 5 -61 16 l-24 9 20 22 c11 12
32 48 46 79 l25 57 49 -25 c26 -13 98 -40 158 -58z m1449 33 c9 -22 16 -52 16
-68 0 -16 6 -31 13 -34 18 -6 -7 -33 -45 -46 -28 -10 -29 -9 -17 7 8 9 19 20
24 24 6 5 4 14 -7 24 -16 16 -21 16 -85 -1 -37 -10 -131 -37 -207 -61 -77 -24
-141 -42 -144 -40 -9 10 -22 90 -15 97 4 4 87 30 183 59 96 29 191 60 210 70
44 22 55 18 74 -31z m-970 -125 l95 -7 0 -80 c0 -59 -4 -76 -12 -68 -6 6 -19
11 -29 11 -27 0 -23 38 5 42 22 4 -18 11 -135 23 -51 6 -58 9 -58 28 0 39 12
68 25 63 7 -2 56 -8 109 -12z m386 -28 c0 -52 -8 -56 -114 -56 -38 0 -67 -3
-63 -6 7 -8 76 -15 140 -15 45 0 47 -1 47 -30 0 -28 -1 -29 -54 -29 -29 0 -74
-3 -100 -6 l-46 -7 0 86 0 85 68 7 c37 3 74 8 82 9 37 8 40 6 40 -38z m-767
-68 c9 -5 22 -6 27 -3 5 3 23 -1 40 -10 17 -9 35 -13 40 -10 6 3 10 -1 10 -11
0 -17 -1 -17 -75 1 -53 13 -158 45 -164 50 -9 9 101 -6 122 -17z m1062 -18
c-3 -5 -18 -10 -33 -9 l-27 1 25 8 c35 11 42 11 35 0z m-304 -442 c56 -112
110 -215 120 -230 11 -14 19 -29 19 -32 0 -3 -31 -6 -69 -6 l-68 0 -9 43 -9
42 -110 0 -110 0 -9 -42 -10 -43 -68 0 c-37 0 -68 4 -68 9 0 5 18 39 41 76 46
76 172 328 181 363 5 17 13 22 37 22 29 0 33 -6 132 -202z m-1578 182 c34 0
37 -2 27 -19 -5 -11 -10 -49 -10 -85 l0 -66 91 0 91 0 -4 88 -3 87 68 0 c68 0
68 0 60 -25 -4 -14 -6 -116 -4 -227 l3 -203 -61 0 -61 0 0 95 0 95 -90 0 -90
0 0 -95 0 -95 -56 0 -56 0 4 204 c2 154 0 208 -9 217 -26 26 -15 42 25 35 20
-3 54 -6 75 -6z m594 -12 c-6 -22 37 -91 81 -131 20 -18 21 -17 67 48 36 49
45 69 36 78 -22 22 -10 27 74 27 85 0 99 -6 69 -31 -9 -7 -39 -47 -67 -89 -28
-41 -68 -96 -90 -122 l-39 -47 3 -85 4 -86 -42 0 c-69 0 -70 1 -65 94 l4 83
-61 84 c-34 46 -79 106 -101 133 -22 26 -40 52 -40 57 0 5 39 9 86 9 84 0 86
-1 81 -22z m1347 5 c-5 -10 -10 -78 -12 -150 -3 -130 -3 -133 22 -158 34 -34
103 -35 133 -2 19 20 21 36 24 157 2 74 -1 143 -5 153 -7 15 -1 17 68 17 80 0
91 -7 60 -41 -13 -15 -16 -39 -15 -120 3 -144 -5 -181 -46 -229 -47 -55 -84
-72 -155 -72 -48 0 -68 6 -105 29 -82 50 -87 63 -94 236 -3 84 -9 162 -13 175
-8 22 -7 22 69 22 70 0 76 -2 69 -17z m584 10 c-2 -5 -10 -20 -17 -35 -11 -21
-12 -58 -6 -170 l7 -144 86 1 c48 0 97 5 110 9 21 8 22 6 22 -53 l0 -61 -167
0 -168 0 0 212 c0 117 -4 221 -9 231 -7 15 -1 17 69 17 42 0 75 -3 73 -7z
m621 -20 c117 -42 181 -181 136 -291 -23 -53 -52 -81 -120 -113 -56 -27 -69
-29 -178 -29 l-118 0 8 38 c10 48 10 370 0 398 -7 21 -6 21 110 17 72 -3 135
-10 162 -20z m-3385 -39 c7 -65 2 -78 -24 -64 -10 5 -42 10 -70 10 l-52 0 4
-170 3 -170 -56 0 -55 0 4 177 5 176 -58 -6 c-32 -3 -63 -11 -68 -16 -24 -24
-32 -10 -29 54 l4 65 192 0 193 0 7 -56z m-961 -4 c5 -4 4 -17 -2 -28 -6 -11
-11 -52 -11 -91 0 -39 -4 -71 -9 -71 -5 0 -11 -18 -15 -40 -13 -81 -26 -40
-26 83 0 67 -3 133 -7 146 -6 22 -4 23 28 16 19 -4 38 -11 42 -15z m5291 -37
c3 -25 6 -74 6 -109 l0 -64 65 0 65 0 0 -30 c0 -40 -23 -50 -114 -50 l-76 0 0
133 c0 72 -3 141 -6 153 -5 18 -2 20 24 16 27 -3 30 -8 36 -49z m-5524 22 c0
-19 -5 -25 -22 -25 -42 0 -52 -14 -35 -46 8 -16 22 -60 32 -99 10 -38 22 -78
27 -87 7 -15 4 -18 -26 -18 -31 0 -34 3 -40 35 l-7 35 -59 0 c-33 0 -60 -4
-60 -8 0 -5 -7 -17 -15 -28 -15 -19 -15 -19 -9 1 4 15 0 13 -16 -7 -12 -16
-25 -28 -30 -28 -14 0 19 122 56 207 40 90 38 89 142 92 60 1 62 0 62 -24z
m5179 6 c15 -11 36 -39 46 -63 10 -24 31 -71 47 -106 20 -47 25 -68 18 -80 -7
-14 -10 -10 -10 18 -1 19 -4 29 -7 23 -2 -7 -13 -13 -23 -13 -10 0 -20 -8 -23
-17 -3 -13 -6 -9 -11 12 -4 17 -11 39 -16 50 -5 11 -14 38 -21 59 -6 22 -20
49 -30 60 -20 21 -26 76 -8 76 6 0 23 -9 38 -19z m787 -67 c36 -24 57 -69 44
-93 -12 -24 -58 -61 -75 -61 -7 0 -27 13 -44 29 -37 35 -41 76 -10 115 24 30
49 33 85 10z m-6376 -9 c39 -20 49 -59 23 -93 -32 -43 -68 -46 -108 -10 -19
16 -35 38 -35 47 0 26 49 67 83 70 4 1 21 -6 37 -14z m5484 -21 c26 -10 19
-51 -13 -73 -34 -24 -41 -25 -75 -9 -58 26 -34 88 35 88 20 0 44 -3 53 -6z
m113 -78 c13 -12 -12 -26 -47 -26 -41 0 -61 16 -39 31 13 9 76 5 86 -5z
m-1315 -392 l135 -7 -5 -24 c-3 -18 1 -26 17 -30 11 -3 18 -9 15 -14 -3 -5 1
-9 9 -9 8 0 17 -6 20 -14 3 -8 16 -16 29 -18 13 -2 -177 -7 -422 -11 -434 -7
-2241 0 -2249 9 -2 2 3 12 13 22 9 9 27 33 39 52 14 22 34 37 52 41 40 9 2174
11 2347 3z m1873 -245 c-3 -10 -8 -29 -11 -41 -11 -40 -185 -339 -276 -473
-179 -266 -260 -361 -447 -528 -388 -346 -761 -559 -1272 -728 -201 -66 -470
-108 -843 -130 -219 -14 -460 -4 -660 26 -215 33 -586 146 -811 247 -228 102
-510 269 -689 407 -73 55 -299 260 -305 274 -2 6 -37 45 -77 87 -99 103 -222
260 -325 415 -84 128 -213 354 -244 428 l-15 37 43 0 44 0 53 -97 c232 -424
502 -762 820 -1027 77 -64 114 -91 285 -201 147 -96 445 -241 642 -313 346
-128 610 -180 968 -191 262 -9 378 -1 685 44 420 63 865 238 1248 491 331 219
443 320 667 599 127 160 233 314 317 464 32 57 58 105 58 106 0 1 13 31 29 66
l29 64 46 -3 c40 -4 46 -7 41 -23z m-4449 -44 c148 -50 238 -121 291 -230 40
-83 39 -88 -25 -202 -48 -87 -68 -101 -77 -55 -20 93 -31 117 -77 168 -73 79
-154 116 -259 116 -97 0 -169 -30 -223 -94 -53 -62 -70 -104 -74 -190 -3 -65
0 -85 20 -130 45 -98 118 -149 239 -169 66 -11 162 2 212 27 l29 15 -7 -118
c-4 -65 -10 -121 -14 -125 -3 -3 -63 -10 -132 -14 -115 -6 -132 -5 -193 16
-82 27 -200 103 -250 161 -91 106 -136 225 -136 360 0 200 98 358 272 439 143
67 258 74 404 25z m1525 -22 l33 -28 187 4 c115 2 200 -1 220 -8 19 -5 47 -13
63 -16 15 -3 26 -8 24 -10 -3 -3 -74 -9 -159 -15 -335 -22 -328 -21 -335 -42
-12 -38 -65 -88 -93 -88 -32 0 -75 41 -91 87 l-11 31 -117 1 c-64 1 -165 4
-224 7 -93 6 -108 9 -108 24 0 15 15 18 107 23 58 4 162 7 231 7 118 0 126 1
154 25 39 33 78 32 119 -2z m-2453 1 c60 -41 65 -123 11 -168 -45 -38 -92 -35
-135 8 -38 38 -43 70 -19 116 20 38 52 60 90 60 17 0 41 -7 53 -16z m4923 -23
c47 -47 51 -85 13 -130 -50 -60 -150 -33 -170 45 -13 53 44 123 100 124 10 0
36 -17 57 -39z m-1715 -447 c5 -83 4 -113 -5 -119 -8 -4 -18 1 -27 14 -22 30
-75 50 -163 60 -164 18 -279 -26 -297 -115 -14 -70 62 -104 236 -104 112 0
239 -18 286 -41 54 -26 128 -101 155 -158 31 -66 24 -184 -15 -260 -110 -215
-429 -302 -701 -191 l-70 28 -22 -26 -23 -27 0 35 c0 19 7 62 14 95 8 33 20
98 27 145 10 70 14 81 23 66 29 -50 71 -85 138 -116 156 -72 371 -41 423 60
21 41 19 83 -7 115 -38 48 -77 58 -274 65 -170 6 -184 8 -237 34 -66 32 -109
72 -140 130 -30 57 -31 192 -2 251 29 60 103 128 176 163 94 45 168 56 296 46
59 -5 115 -9 123 -9 8 0 24 17 35 37 l20 37 12 -52 c7 -29 16 -102 19 -163z
m-1508 186 c58 -22 263 -60 327 -60 92 -1 111 -26 45 -60 -23 -12 -44 -28 -47
-37 -13 -34 51 -332 88 -408 11 -24 39 -54 69 -75 27 -19 50 -38 50 -41 0 -3
-25 -11 -55 -18 -30 -7 -55 -16 -55 -20 0 -4 11 -41 25 -82 14 -41 34 -113 45
-161 24 -108 41 -143 93 -190 l42 -37 -35 -1 c-77 0 -450 49 -450 60 0 3 30
22 68 42 64 34 67 37 70 74 1 22 -4 61 -11 89 l-13 50 -105 22 c-196 42 -353
64 -361 50 -4 -7 -22 -37 -42 -67 -39 -61 -37 -73 23 -138 17 -18 31 -35 31
-38 0 -2 -13 -4 -29 -4 -29 0 -378 125 -396 142 -13 12 8 24 54 32 65 11 96
40 190 181 l91 136 -35 30 c-39 35 -38 49 5 49 50 0 78 18 106 67 31 54 128
197 174 257 38 49 38 71 0 104 -17 15 -30 36 -30 49 0 28 2 28 68 3z"/>
<path d="M2855 6710 c-3 -6 1 -7 9 -4 18 7 21 14 7 14 -6 0 -13 -4 -16 -10z"/>
<path d="M4553 6476 c20 -20 40 -35 45 -34 4 1 17 -3 30 -11 13 -7 28 -11 33
-9 15 5 -83 76 -116 83 l-30 7 38 -36z"/>
<path d="M4202 6300 c-2 -30 -7 -73 -12 -95 -12 -53 -4 -58 10 -6 6 23 9 67 7
99 l-3 57 -2 -55z"/>
<path d="M2868 6295 c-7 -11 -6 -20 7 -115 8 -58 54 -157 87 -187 14 -13 10 2
-15 47 -35 62 -62 155 -69 230 -2 19 -6 30 -10 25z"/>
<path d="M3037 6190 c8 -36 30 -68 55 -81 72 -38 141 -104 183 -177 25 -42 45
-84 45 -94 0 -9 -24 -72 -54 -140 -30 -68 -86 -195 -124 -283 -38 -88 -114
-263 -169 -390 -55 -126 -127 -295 -160 -375 -136 -324 -176 -417 -199 -457
-34 -57 -100 -115 -157 -139 -47 -19 -48 -20 -42 -54 4 -19 10 -39 15 -44 5
-4 140 -10 301 -12 225 -3 295 -1 301 9 15 23 8 47 -15 56 -76 29 -123 117
-107 202 11 55 68 214 109 299 17 36 31 71 31 78 0 9 73 12 333 12 184 0 368
3 410 6 56 5 77 4 77 -5 0 -6 24 -73 54 -149 30 -75 64 -171 77 -214 l22 -76
-22 -44 c-12 -23 -37 -60 -56 -82 -23 -25 -35 -48 -35 -68 l0 -30 338 4 c209
2 340 7 344 13 9 12 11 101 2 92 -10 -10 -81 30 -125 70 -22 20 -51 55 -64 77
-24 42 -137 315 -231 559 -29 76 -74 186 -98 245 -25 59 -73 181 -107 272 -34
91 -93 247 -130 348 -46 123 -69 197 -69 226 0 54 22 119 55 163 30 38 105 92
143 102 20 6 29 17 39 49 6 23 9 43 5 43 -4 1 -226 4 -494 8 l-487 6 6 -25z
m477 -780 c25 -58 66 -154 92 -215 56 -134 116 -306 108 -314 -6 -6 -484 -10
-496 -4 -13 7 82 277 186 528 25 61 46 117 46 125 0 24 13 -1 64 -120z"/>
<path d="M3453 5109 c-7 -17 -10 -29 -6 -26 3 4 14 -4 23 -16 10 -12 21 -19
25 -15 7 7 -15 88 -24 88 -4 0 -12 -14 -18 -31z"/>
<path d="M3505 5020 c-3 -5 1 -10 9 -10 9 0 16 5 16 10 0 6 -4 10 -9 10 -6 0
-13 -4 -16 -10z"/>
<path d="M2563 6141 c-3 -12 -12 -21 -20 -21 -8 0 -17 -9 -20 -20 -3 -11 -11
-20 -18 -20 -9 0 -14 -35 -18 -127 -7 -151 -4 -1029 3 -1036 3 -3 19 -8 36
-11 25 -6 33 -3 39 11 12 26 15 1134 4 1155 -7 12 -5 27 6 47 10 20 12 32 4
36 -6 4 -13 -2 -16 -14z"/>
<path d="M4518 6153 c-25 -6 -29 -46 -26 -268 l3 -200 34 -3 c18 -2 37 0 42 5
4 4 9 106 11 226 2 206 1 220 -17 233 -10 8 -21 13 -24 13 -3 -1 -14 -3 -23
-6z"/>
<path d="M4494 5493 c-8 -6 -13 -88 -16 -255 l-4 -248 33 -6 c61 -11 60 -13
68 198 4 106 5 220 3 253 l-3 60 -35 3 c-19 1 -40 -1 -46 -5z"/>
<path d="M3338 4453 c12 -2 30 -2 40 0 9 3 -1 5 -23 4 -22 0 -30 -2 -17 -4z"/>
<path d="M3757 4354 c-9 -134 -9 -238 0 -287 l6 -38 39 38 c22 21 48 52 59 70
19 31 19 32 0 120 -30 131 -56 197 -79 201 -17 3 -19 -6 -25 -104z"/>
<path d="M3473 4328 c-13 -21 -17 -512 -4 -537 9 -16 21 -21 49 -21 69 0 66
-8 71 275 3 234 2 258 -14 275 -21 23 -89 28 -102 8z"/>
<path d="M2017 5670 c-3 -11 -2 -20 3 -20 4 0 10 9 13 20 3 11 2 20 -3 20 -4
0 -10 -9 -13 -20z"/>
<path d="M2020 5631 c0 -5 -10 -13 -21 -16 -13 -4 -17 -10 -11 -14 6 -3 10
-13 10 -21 -4 -67 20 -81 42 -25 13 33 22 40 44 36 5 -1 6 5 2 14 -3 9 -6 21
-6 26 0 5 -13 9 -30 9 -16 0 -30 -4 -30 -9z"/>
<path d="M2050 5544 c0 -8 5 -12 10 -9 6 3 10 10 10 16 0 5 -4 9 -10 9 -5 0
-10 -7 -10 -16z"/>
<path d="M2040 5505 c0 -8 2 -15 4 -15 2 0 6 7 10 15 3 8 1 15 -4 15 -6 0 -10
-7 -10 -15z"/>
<path d="M1872 4875 c0 -16 2 -22 5 -12 2 9 2 23 0 30 -3 6 -5 -1 -5 -18z"/>
<path d="M5016 5162 c-8 -24 2 -72 15 -72 12 0 11 61 0 79 -7 11 -10 9 -15 -7z"/>
<path d="M5371 5464 c0 -11 3 -14 6 -6 3 7 2 16 -1 19 -3 4 -6 -2 -5 -13z"/>
<path d="M5384 5378 c8 -45 12 -55 14 -34 4 36 -6 96 -16 96 -5 0 -3 -28 2
-62z"/>
<path d="M5456 5342 c-4 -7 -5 -12 -2 -12 3 0 1 -12 -5 -27 -6 -15 -7 -24 -3
-21 3 4 15 -3 26 -15 l19 -22 -7 35 c-10 55 -20 75 -28 62z"/>
<path d="M652 4814 c-12 -25 -20 -50 -17 -55 8 -12 95 -12 95 0 0 18 -39 101
-48 101 -4 0 -18 -21 -30 -46z"/>
<path d="M3630 2768 c-14 -29 -26 -56 -28 -60 -2 -5 21 -8 52 -8 l55 0 -21 53
c-12 28 -24 55 -28 60 -3 4 -17 -16 -30 -45z"/>
<path d="M5191 2749 l0 -124 64 5 c53 4 69 10 94 34 39 37 49 87 28 132 -20
41 -63 64 -133 71 l-54 6 1 -124z"/>
<path d="M608 2800 c-9 -28 -13 -52 -10 -54 4 -2 24 -6 45 -10 32 -6 37 -5 37
13 0 35 -34 101 -52 101 -2 0 -10 -23 -20 -50z"/>
<path d="M3360 260 c0 -13 40 -13 60 0 11 7 5 10 -22 10 -21 0 -38 -4 -38 -10z"/>
<path d="M3358 193 c7 -3 16 -2 19 1 4 3 -2 6 -13 5 -11 0 -14 -3 -6 -6z"/>
<path d="M3578 193 c7 -3 16 -2 19 1 4 3 -2 6 -13 5 -11 0 -14 -3 -6 -6z"/>
<path d="M2934 1418 c-37 -73 -158 -260 -177 -273 -18 -13 -17 -14 19 -20 22
-4 89 -17 149 -30 61 -13 112 -21 114 -19 3 3 -79 366 -85 372 -1 2 -10 -11
-20 -30z"/>
</g>
</svg>
